<?xml version="1.0" encoding="utf-8"?>
<!-- Generator: Adobe Illustrator 16.2.1, SVG Export Plug-In . SVG Version: 6.00 Build 0)  -->
<!DOCTYPE svg PUBLIC "-//W3C//DTD SVG 1.1//EN" "http://www.w3.org/Graphics/SVG/1.1/DTD/svg11.dtd">
<svg version="1.1" xmlns="http://www.w3.org/2000/svg" xmlns:xlink="http://www.w3.org/1999/xlink" x="0px" y="0px" width="900px"
	 height="600px" viewBox="0 0 900 600" enable-background="new 0 0 900 600" xml:space="preserve">
<g id="Sketch" display="none">
</g>
<g id="Art">
	<g>
		<path fill="#EDEBE8" d="M218.898,482.502c-3.568-11.34-8.371-22.281-14.359-32.537c-11.961-20.512-28.093-38.641-47.504-52.729
			c-9.767-7.029-20.451-12.965-31.854-17.355c-9.015-3.459-18.481-5.916-28.177-7.223l0.129-27
			c-0.06-22.66-0.103-45.318-0.451-67.976l-0.228-16.994l-0.064-3.303c0.455-0.242,0.92-0.477,1.372-0.722
			c2.629-1.433,5.155-2.901,7.713-4.458l7.223-4.395l14.404-8.749l28.808-17.499c19.162-11.742,38.356-23.429,57.477-35.242
			c38.273-23.572,76.451-47.312,114.379-71.492l-2.591-4.555c-39.724,21.023-79.196,42.486-118.573,64.117
			c-19.705,10.789-39.336,21.704-59,32.564l-29.431,16.403l-14.716,8.201l-7.34,4.075c-0.048,0.026-0.099,0.053-0.148,0.078
			l-0.176-9.013l-0.222-8.497l-0.056-2.123l-0.03-1.158c-0.013-0.584-0.042-1.176-0.086-1.773c-0.177-2.391-0.624-4.902-1.454-7.423
			c-0.824-2.518-2.051-5.038-3.672-7.33c-1.617-2.294-3.623-4.345-5.841-5.985c-4.458-3.314-9.589-4.94-14.376-5.328
			c-4.817-0.393-9.395,0.365-13.532,1.852c-4.143,1.488-7.858,3.722-11.045,6.408c-6.406,5.397-10.547,12.508-12.853,19.554
			c-1.166,3.537-1.906,7.089-2.333,10.58c-0.211,1.745-0.349,3.479-0.418,5.191c-0.032,0.871-0.052,1.678-0.055,2.591l0.008,1.24
			l0.029,1.316c0.133,3.668,0.63,7.502,1.858,11.451c1.22,3.923,3.25,8.029,6.388,11.545c3.103,3.531,7.265,6.207,11.396,7.647
			c4.151,1.478,8.196,1.907,11.907,1.872c2.163-0.039,4.226-0.23,6.222-0.516l-0.132,9.867c-0.347,22.658-0.391,45.316-0.451,67.976
			l0.091,26.881c-5.127,0.689-10.237,1.76-15.283,3.254c-6.152,1.832-12.208,4.293-18.001,7.523
			c-5.788,3.225-11.326,7.227-16.259,12.154c-4.928,4.916-9.263,10.791-12.383,17.502c-1.559,3.346-2.809,6.891-3.684,10.545
			c-0.438,1.83-0.783,3.682-1.033,5.549c-0.248,1.857-0.405,3.732-0.463,5.719c-0.097,3.453,0.049,7.203,0.726,11.143
			c0.685,3.938,1.9,8.201,4.377,12.521c1.236,2.148,2.81,4.291,4.748,6.227c1.927,1.939,4.23,3.65,6.703,4.947
			c2.474,1.307,5.097,2.191,7.649,2.703c2.555,0.512,5.041,0.664,7.379,0.578c4.693-0.178,8.813-1.23,12.524-2.6
			c3.711-1.383,7.032-3.121,10.097-5.045c6.12-3.867,11.253-8.473,15.773-13.463c8.98-10.027,15.487-21.629,19.937-33.863
			c2.217-6.123,3.898-12.414,5.07-18.775c0.199-1.088,0.364-2.182,0.536-3.273c7.518,0.768,15.017,2.414,22.314,4.834
			c9.71,3.191,19.069,7.771,27.84,13.447c17.648,11.385,33.132,26.709,44.955,44.592c5.89,8.949,11.012,18.473,14.903,28.502
			c3.902,10.014,6.616,20.512,7.732,31.148c1.114,10.611,0.55,21.451-2.63,31.498c-1.57,5.02-3.78,9.832-6.717,14.184
			c-2.926,4.357-6.565,8.242-10.754,11.516l3.365,4.959c5.038-3.145,9.618-7.166,13.42-11.869c3.82-4.689,6.902-10.004,9.196-15.613
			c4.579-11.264,6.163-23.482,5.865-35.434C224.711,505.658,222.418,493.852,218.898,482.502z M61.608,246.956
			c-1.878-0.091-3.466-0.45-4.571-0.957c-1.12-0.515-1.76-1.082-2.327-1.84c-0.558-0.756-1.07-1.846-1.431-3.346
			c-0.361-1.488-0.533-3.332-0.483-5.324c0.105-4.496,0.858-8.928,2.289-12.504c1.416-3.608,3.52-6.421,5.882-8.135
			c1.176-0.861,2.412-1.455,3.58-1.771c1.164-0.322,2.257-0.348,3.019-0.193c0.776,0.15,1.134,0.46,1.15,0.573
			c0.015,0.139-0.106,0.025-0.047,0.39c0.018,0.18,0.047,0.48,0.035,0.916l-0.017,0.35l-0.027,0.967l-0.056,2.123l-0.222,8.497
			l-0.332,16.994l-0.055,2.805C65.713,246.881,63.541,247.056,61.608,246.956z M48.663,432.463
			c-2.948,3.439-6.233,6.467-9.569,8.689c-1.659,1.109-3.326,2.014-4.855,2.633c-1.521,0.625-2.908,0.947-3.817,1.012
			c-0.936,0.068-1.252-0.053-1.256-0.023c-0.002,0.016-0.071,0.129-0.481-0.461c-0.385-0.562-0.893-1.781-1.229-3.404
			c-0.345-1.631-0.531-3.568-0.533-5.773c-0.002-0.846,0.039-1.799,0.134-2.754c0.093-0.941,0.234-1.881,0.424-2.814
			c0.379-1.867,0.953-3.709,1.719-5.512c1.529-3.611,3.843-7.07,6.785-10.203c5.889-6.289,14.131-11.199,23.193-14.254
			c1.944-0.658,3.931-1.221,5.943-1.721c-0.722,3.428-1.635,6.803-2.756,10.094C59.279,417.047,54.615,425.572,48.663,432.463z"/>
		<path fill="#EDEBE8" d="M279.6,373.193c3.457,0.062,6.94-0.291,10.262-1.156c3.322-0.879,6.446-2.24,9.341-3.879l-0.709-1.615
			c-6.084,2.127-12.39,2.617-18.397,1.436c-6.024-1.148-11.813-3.559-17.388-6.459c-2.788-1.439-5.564-3-8.252-4.633l-1.039-0.631
			l-1.163-0.68c-0.78-0.443-1.569-0.865-2.367-1.27c-1.595-0.809-3.223-1.541-4.876-2.203c-0.986-0.396-1.982-0.756-2.985-1.1
			c0.158-1.465,0.294-2.93,0.388-4.389l0.079-1.406l0.062-1.459l0.08-2.543l0.146-4.932c0.214-6.576,0.361-13.15,0.499-19.727
			c0.604-26.3,0.982-52.599,0.719-78.9H216.24c-0.264,26.301,0.115,52.6,0.719,78.9c0.138,6.576,0.285,13.15,0.499,19.727
			l0.146,4.932l0.066,2.385l0.02,1.008l0.004,1.059c-0.002,0.584-0.016,1.162-0.031,1.742c-5.136,0.197-10.367,1.045-15.596,2.979
			c-3.716,1.389-7.444,3.367-10.82,6.232c-3.37,2.836-6.31,6.658-8.152,10.982c-0.929,2.154-1.591,4.406-1.995,6.654
			c-0.205,1.123-0.349,2.244-0.44,3.355l-0.098,1.584l-0.021,0.916v0.854c0.029,2.289,0.293,4.746,1.023,7.344
			c0.74,2.584,1.991,5.359,4.062,7.867c2.041,2.51,4.93,4.596,7.985,5.746c3.06,1.182,6.169,1.508,8.968,1.352
			c5.632-0.363,10.185-2.355,14.054-4.729c3.856-2.428,7.049-5.363,9.796-8.521c2.745-3.162,5.028-6.568,6.952-10.088
			c3.088-5.688,5.266-11.66,6.722-17.693c0.513,0.113,1.026,0.223,1.535,0.348c1.437,0.354,2.858,0.768,4.254,1.244
			c0.698,0.238,1.39,0.492,2.073,0.764l1.021,0.418l1.132,0.488c3.11,1.334,6.221,2.574,9.428,3.674
			C265.945,371.311,272.658,373.051,279.6,373.193z M209.474,375.832c-1.392,1.902-2.964,3.547-4.539,4.74
			c-1.541,1.223-3.138,1.941-4.01,2.143c-0.435,0.109-0.633,0.121-0.641,0.193c-0.012,0.064,0.1,0.246,0.009,0.271
			c-0.079,0.031-0.329-0.188-0.58-0.727c-0.246-0.541-0.475-1.363-0.589-2.355l-0.04-0.381l-0.016-0.193l-0.009-0.098
			c-0.001,0.029-0.002-0.135-0.004,0.053l-0.003-0.078l-0.035-0.879c-0.011-0.531,0.002-1.049,0.04-1.551
			c0.08-1.002,0.236-1.953,0.492-2.861c0.516-1.809,1.44-3.488,2.888-5.059c1.438-1.568,3.388-2.982,5.658-4.135
			c2.27-1.158,4.847-2.045,7.553-2.697c0.002,0,0.004,0,0.006,0c-0.656,2.516-1.479,4.938-2.504,7.209
			C212.109,371.756,210.875,373.928,209.474,375.832z"/>
		<ellipse fill="#EDEBE8" cx="230.449" cy="210.715" rx="14.622" ry="17.801"/>
		<path fill="#EDEBE8" d="M181.443,330.717l6.477,6.361l0.578-0.465l0.685-0.617c0.421-0.387,0.831-0.783,1.226-1.186
			c0.792-0.809,1.535-1.648,2.237-2.51c1.405-1.725,2.655-3.541,3.78-5.426c2.245-3.777,4.02-7.826,5.302-12.146
			c1.268-4.322,2.063-8.93,2.016-13.865c-0.048-4.907-0.985-10.248-3.501-15.407c-0.627-1.281-1.35-2.543-2.164-3.761
			c-0.404-0.611-0.839-1.207-1.288-1.793l-0.344-0.434l-0.174-0.217l-0.087-0.109l-0.043-0.055
			c-0.055-0.057,0.062,0.055-0.134-0.144c-0.166-0.212-0.22-0.321-0.572-0.704l-0.791-0.869l-0.767-0.792
			c-0.52-0.521-1.054-1.022-1.595-1.519c-1.086-0.987-2.234-1.893-3.416-2.741c-4.73-3.39-10.153-5.568-15.617-6.192
			c-2.731-0.333-5.46-0.281-8.146-0.033c-2.687,0.256-5.338,0.74-7.938,1.451c-1.859,0.511-3.695,1.14-5.496,1.882l-0.118-7.524
			h-26.146l-1.76,112.216l0,0v0.008h29.666v-0.008l0,0l-1.012-64.523c0.064-0.725,0.151-1.436,0.281-2.105
			c0.891-4.297,2.885-7.435,6.227-9.829c1.655-1.178,3.616-2.155,5.735-2.745c1.057-0.298,2.146-0.506,3.23-0.619
			c1.086-0.113,2.161-0.099,3.206-0.122c2.079,0.005,4.135-0.147,6.071,0.132c0.482,0.068,0.946,0.178,1.399,0.306
			c0.229,0.062,0.45,0.14,0.661,0.229l0.319,0.134c0.103,0.047,0.226,0.111,0.261,0.098c-0.002-0.061,0.278,0.171,0.452,0.293
			c-0.176-0.178-0.039-0.042-0.073-0.08l0.018,0.012l0.036,0.021l0.073,0.041l0.148,0.084c0.192,0.119,0.389,0.24,0.577,0.376
			c0.381,0.269,0.754,0.575,1.118,0.925c1.455,1.392,2.741,3.572,3.558,6.267c0.833,2.684,1.216,5.816,1.174,9.037
			c-0.044,3.227-0.507,6.564-1.377,9.775C184.502,325.045,183.277,328.105,181.443,330.717z"/>
		<path fill="#EDEBE8" d="M316.89,209.467c2.973-2.322,5.596-5.105,7.977-8.193c2.324-3.119,4.414-6.6,5.713-10.723
			c0.65-2.055,1.113-4.281,1.176-6.646c0.078-2.357-0.225-4.86-0.99-7.286c-0.748-2.435-2.008-4.724-3.506-6.728
			c-0.752-1-1.564-1.938-2.42-2.803l-0.646-0.639l-0.707-0.646l-0.252-0.238l-0.062-0.059c-0.004-0.01-0.172-0.131-0.142-0.114
			l-0.169-0.146l-0.689-0.571c-3.727-2.995-8.439-5.161-13.434-6.024c-5.002-0.883-10.166-0.387-14.896,0.995
			c-4.762,1.369-9.084,3.728-12.902,6.579c-3.82,2.863-7.172,6.247-9.963,9.998c-5.629,7.486-9.163,16.262-10.869,25.188
			c-0.422,2.232-0.738,4.479-0.95,6.727c-0.207,2.251-0.329,4.437-0.267,7.064c0.113,5.078,1.133,10.668,3.442,15.925
			c2.261,5.277,5.782,9.886,9.428,13.44c3.671,3.584,7.468,6.236,11.007,8.519c7.127,4.478,13.5,7.599,18.628,10.95
			c2.574,1.638,4.806,3.306,6.681,5.009c1.896,1.692,3.396,3.45,4.662,5.333c1.258,1.839,2.308,4.097,2.957,6.027
			c0.654,2.004,0.981,4.055,1.002,6.211c0.022,4.283-1.339,9.105-4.048,13.596c-2.649,4.507-6.573,8.607-10.97,11.488
			c-2.201,1.42-4.5,2.582-6.787,3.254c-1.141,0.346-2.27,0.574-3.372,0.688c-1.105,0.143-2.187,0.164-3.247,0.061
			c-1.061-0.102-2.103-0.33-3.133-0.709c-0.961-0.342-2.364-1.098-3.537-1.814c-2.414-1.471-4.52-3.33-6.348-5.488
			c-3.617-4.305-5.801-10.285-5.328-16.545c0.27-3.091,1.164-6.244,3.029-8.913c1.817-2.685,4.732-4.818,8.406-5.637
			c-1.82-0.41-3.801-0.457-5.766-0.038c-1.969,0.401-3.886,1.271-5.628,2.441c-3.474,2.386-6.154,5.978-7.823,9.97
			c-3.424,8.009-3.011,17.728,0.831,26.064c1.879,4.193,4.641,7.963,7.815,11.217c1.63,1.633,3.169,3.078,5.359,4.588
			c2.127,1.461,4.473,2.664,6.92,3.557c2.447,0.898,4.99,1.488,7.523,1.795c2.539,0.279,5.063,0.285,7.523,0.066
			c4.92-0.449,9.601-1.699,13.914-3.57c8.637-3.738,16.014-9.615,21.862-17.076c2.886-3.758,5.415-7.928,7.294-12.533
			c1.896-4.591,3.189-9.602,3.608-14.814c0.455-5.204-0.015-10.582-1.315-15.68c-0.321-1.274-0.697-2.531-1.117-3.766l-0.328-0.92
			l-0.346-0.912c-0.114-0.316-0.455-1.149-0.703-1.727c-0.986-2.316-2.152-4.584-3.468-6.755c-2.628-4.353-5.918-8.233-9.392-11.522
			c-3.491-3.289-7.176-5.978-10.742-8.303c-7.162-4.596-13.999-7.805-19.336-10.975c-2.678-1.551-4.918-3.098-6.59-4.539
			c-1.695-1.45-2.741-2.76-3.566-4.172c-0.801-1.426-1.379-3.164-1.69-5.438c-0.153-1.053-0.198-2.558-0.229-3.988
			c-0.021-1.434,0.023-2.857,0.131-4.271c0.412-5.643,1.854-11.111,4.34-15.898c1.257-2.376,2.732-4.608,4.469-6.521
			c1.729-1.918,3.705-3.484,5.773-4.699c2.084-1.205,4.295-1.91,6.561-2.146c2.272-0.246,4.639,0.099,7.033,1.101
			c2.477,1.018,4.426,2.371,5.827,4.25c1.439,1.868,2.216,4.588,2.297,7.756c0.054,3.155-0.539,6.624-1.541,10.049
			C319.879,202.635,318.519,206.071,316.89,209.467z"/>
		<path fill="#EDEBE8" d="M529.057,297.499c4.566-5.741,8.375-12.223,10.842-19.309c2.465-7.057,3.584-14.804,2.242-22.482
			c-0.684-3.816-2.016-7.627-4.303-10.99c-2.252-3.344-5.656-6.221-9.695-7.395c-4.023-1.229-8.238-0.706-11.748,0.68
			c-3.557,1.379-6.557,3.553-9.184,5.959l2.408,3.02c2.631-1.867,5.471-3.362,8.348-4.131c2.875-0.771,5.77-0.695,8.164,0.359
			c2.396,1.045,4.336,2.966,5.668,5.393c1.336,2.428,2.082,5.29,2.326,8.232c0.48,5.925-0.949,12.072-3.406,17.703
			c-2.496,5.648-6.084,10.845-10.305,15.479c-2.104,2.313-4.416,4.511-6.791,6.524c-2.445,2.066-5.02,4.043-7.645,5.906
			c-5.262,3.732-10.822,7.039-16.584,9.957c-11.531,5.84-23.855,10.117-36.477,13.211c-3.445,0.844-6.914,1.59-10.402,2.262
			c0.971-3.289,1.834-6.609,2.561-9.977c1.586-7.42,2.627-14.975,2.713-22.972l0.188-41.094c0.082-13.676,0.09-27.353,0.086-41.029
			l0.006-20.514l0.002-10.258l-0.01-5.129c-0.012-1.733,0.004-3.295-0.045-5.448c-0.111-4.052-0.492-8.239-1.387-12.596
			c-0.922-4.353-2.33-8.921-4.91-13.515c-1.297-2.286-2.885-4.565-4.868-6.684c-1.969-2.115-4.328-4.058-6.973-5.591
			c-2.639-1.542-5.536-2.661-8.434-3.309c-2.9-0.656-5.791-0.856-8.52-0.712c-5.479,0.287-10.313,1.786-14.562,3.742
			c-4.256,1.977-7.984,4.446-11.332,7.176c-0.403,0.331-0.783,0.678-1.176,1.016c0.307-18.008,0.48-36.016,0.525-54.022
			c0.004-0.66,0.007-1.322,0.011-1.983c1.858-1.875,3.614-3.793,5.291-5.728c2.144-2.473,4.206-5.021,6.163-7.654
			c7.75-10.555,14.055-22.428,17.057-35.395c1.477-6.458,2.132-13.213,1.137-19.932c-0.54-3.338-1.485-6.692-3.252-9.701
			c-0.883-1.494-1.969-2.895-3.284-4.052c-1.318-1.149-2.864-2.032-4.487-2.52l-0.857,2.022c2.367,1.466,3.826,3.853,4.617,6.434
			c0.795,2.597,0.996,5.409,0.824,8.203c-0.323,5.614-2.002,11.172-4.244,16.415c-2.303,5.239-5.179,10.231-8.537,14.879
			c-3.303,4.632-7.004,8.976-11.025,13c-0.614-5.225-1.766-10.521-3.746-15.824c-2.865-7.682-7.717-15.317-14.818-21.134
			c-7.042-5.803-16.381-9.543-26.131-9.347c-4.854,0.1-9.77,1.148-14.319,3.194c-4.552,2.028-8.71,5.065-12.026,8.763
			c-3.336,3.688-5.801,7.992-7.41,12.353c-1.608,4.377-2.358,8.803-2.575,13.019c-0.054,1.055-0.075,2.102-0.063,3.134l0.012,0.85
			l0.021,0.577l0.061,1.424c0.101,1.857,0.257,3.725,0.5,5.606c0.479,3.76,1.26,7.568,2.465,11.369
			c1.212,3.794,2.882,7.571,5.104,11.176c2.217,3.599,5.023,7.019,8.414,9.917c3.383,2.897,7.352,5.24,11.554,6.74
			c4.208,1.498,8.589,2.153,12.779,2.141c3.913-0.015,7.661-0.594,11.175-1.532c0.297,43.808,1.35,87.616,3.349,131.424l0.925,18.48
			l0.202,4.41c0.057,1.429,0.087,2.857,0.095,4.286c0.018,2.856-0.064,5.714-0.242,8.565c-0.377,5.7-1.102,11.386-2.234,17.01
			c-1.144,5.623-2.733,11.166-4.678,16.619c-1.967,5.445-4.377,10.756-7.137,15.928c-1.388,2.582-2.879,5.119-4.468,7.604
			c-1.574,2.496-3.242,4.945-5.007,7.334c-3.541,4.77-7.393,9.367-11.6,13.676c-4.198,4.301-8.704,8.418-13.583,12.008l0.635,1.225
			c5.786-2.369,11.167-5.545,16.362-9.068c5.166-3.559,10.106-7.531,14.695-11.936c2.299-2.199,4.527-4.488,6.67-6.871
			c2.126-2.396,4.169-4.883,6.121-7.451c3.923-5.127,7.403-10.641,10.465-16.418c3.074-5.77,5.654-11.84,7.758-18.093
			c2.12-6.248,3.749-12.685,4.862-19.212c0.563-3.262,1.017-6.545,1.356-9.839c0.17-1.646,0.314-3.297,0.429-4.947
			c0.128-1.652,0.179-3.335,0.264-4.828l0.925-18.48c0.583-12.774,1.082-25.547,1.51-38.322c0.014-0.093,0.022-0.187,0.035-0.279
			c0.414-2.848,1.008-5.65,1.781-8.384c1.518-5.474,3.76-10.688,6.655-15.36c2.896-4.651,6.435-8.818,10.327-11.883
			c1.935-1.529,3.95-2.767,5.857-3.605c1.902-0.849,3.69-1.248,4.976-1.271c1.316-0.016,1.977,0.218,2.53,0.545
			c0.546,0.333,1.244,0.979,2.019,2.366c0.763,1.364,1.458,3.385,1.923,5.714c0.461,2.345,0.711,4.994,0.762,7.775l-0.002,40.709
			c-0.004,13.677,0.003,27.354,0.086,41.029l0.183,40.965c-0.023,5.684-0.69,11.765-1.865,17.728
			c-1.179,5.98-2.862,11.924-4.997,17.635c-0.181,0.484-0.385,0.955-0.572,1.436c-6.453,0.461-12.92,0.766-19.384,0.805
			c-3.259,0.025-6.514-0.01-9.763-0.105l-1.457-0.023c-0.519-0.002-1.041,0.006-1.564,0.02c-1.049,0.029-2.107,0.088-3.175,0.182
			c-2.134,0.189-4.31,0.518-6.511,1.033c-4.389,1.037-8.944,2.814-13.185,5.889c-4.204,3.047-8.12,7.543-10.172,13.34
			c-1.024,2.877-1.565,6.029-1.497,9.203c0.06,3.174,0.738,6.354,1.932,9.244c1.188,2.898,2.879,5.5,4.832,7.689
			c1.955,2.193,4.164,3.973,6.437,5.404c4.569,2.852,9.331,4.33,13.85,5.072c1.133,0.184,2.254,0.324,3.363,0.424
			c1.124,0.102,2.161,0.162,3.382,0.193l0.634,0.016h0.968c0.59-0.008,1.182-0.023,1.773-0.057c1.182-0.061,2.362-0.17,3.534-0.33
			c4.696-0.645,9.216-2.1,13.29-4.076c4.08-1.982,7.744-4.449,11.002-7.166c6.512-5.469,11.533-11.799,15.742-18.348
			c2.487-3.896,4.674-7.896,6.629-11.969c7.624-1.631,15.188-3.592,22.647-5.961c13.404-4.268,26.494-9.84,38.709-17.109
			c6.102-3.637,11.977-7.695,17.5-12.209c2.766-2.264,5.434-4.611,8.014-7.117C524.326,303.066,526.773,300.387,529.057,297.499z
			 M346.357,82.148c-1.893-0.221-3.58-0.718-5.049-1.462c-1.477-0.726-2.77-1.675-3.924-2.885c-2.307-2.4-4.047-5.948-5.041-10.189
			c-0.515-2.112-0.84-4.388-0.982-6.754c-0.074-1.182-0.096-2.391-0.084-3.612l0.021-0.886l0.014-0.578
			c0.002-0.076,0.005,0.098,0.006-0.019l0.006-0.096l0.012-0.189c0.028-0.508,0.076-1.001,0.135-1.482
			c0.23-1.922,0.716-3.6,1.329-4.963c0.608-1.371,1.356-2.431,2.196-3.233c1.66-1.585,3.798-2.359,6.287-2.252
			c2.471,0.085,5.149,1.11,7.468,3.159c2.343,2.028,4.296,5.117,5.692,8.942c1.403,3.809,2.151,8.428,2.254,13.221l0.017,1.924
			l-0.009,2.309l-0.019,4.62c-0.008,1.058-0.005,2.116-0.003,3.172C352.996,82.024,349.428,82.525,346.357,82.148z M396.503,359.113
			c-3.846,3.379-7.881,5.516-11.852,6.178c-0.501,0.084-1.003,0.146-1.508,0.189c-0.252,0.025-0.505,0.037-0.76,0.049l-0.189,0.006
			l-0.096,0.004c-0.127,0,0.07,0.004-0.014,0.004l-0.634,0.002c-0.469,0.002-1.12-0.014-1.681-0.049
			c-0.575-0.033-1.134-0.086-1.672-0.158c-2.151-0.283-3.979-0.85-5.209-1.539c-1.248-0.691-1.842-1.398-2.111-1.877
			c-0.26-0.494-0.362-0.871-0.207-1.584c0.167-0.689,0.712-1.732,1.93-2.74c1.195-1.01,2.99-1.945,5.146-2.57
			c1.077-0.318,2.242-0.564,3.468-0.738c0.613-0.088,1.24-0.154,1.879-0.207l0.97-0.062l1.078-0.045
			c3.509-0.104,7.015-0.271,10.51-0.504c2.266-0.152,4.527-0.338,6.787-0.539C400.498,355.246,398.547,357.34,396.503,359.113z"/>
		<polygon fill="#EDEBE8" points="90.61,128.041 90.61,135.383 115.411,120.708 115.411,199.911 122.282,195.844 122.282,108.981 		
			"/>
		<polygon fill="#EDEBE8" points="127.239,192.912 133.254,189.352 133.254,110.149 153.096,98.409 153.096,90.439 127.239,105.999 
					"/>
		<polygon fill="#EDEBE8" points="153.096,77.497 90.61,114.471 90.61,122.207 153.096,84.606 		"/>
		<polygon fill="#EDEBE8" points="246.198,67.72 271.686,52.383 271.686,45.719 252.424,57.08 252.424,39.592 281.609,22.323 
			281.609,14.622 246.198,35.924 		"/>
		<polygon fill="#EDEBE8" points="246.198,108.918 281.609,87.621 281.609,80.656 252.424,97.925 252.424,77.976 271.686,66.615 
			271.686,58.216 246.198,73.554 		"/>
		<polygon fill="#EDEBE8" points="241.242,76.537 211.919,94.182 211.919,142.805 218.23,139.071 218.23,98.144 234.582,88.501 
			234.582,129.396 281.609,101.569 281.609,93.453 241.242,117.733 		"/>
		<polygon fill="#EDEBE8" points="206.964,91.33 206.964,45.581 200.386,49.472 200.386,87.773 178.397,100.744 178.397,62.483 
			172.054,66.236 172.054,112.337 		"/>
		<polygon fill="#EDEBE8" points="172.054,118.171 172.054,166.395 178.397,162.641 178.397,121.639 200.386,108.668 
			200.386,149.629 206.964,145.737 206.964,97.165 		"/>
		<polygon fill="#EDEBE8" points="241.242,70.704 241.242,33.072 281.609,8.789 281.609,1.412 238.998,26.625 234.582,29.239 
			234.582,67.606 218.23,77.25 218.23,38.914 211.919,42.648 211.919,88.348 		"/>
		<polygon fill="#EDEBE8" points="167.098,69.169 160.554,73.042 160.554,173.2 167.098,169.327 		"/>
		<path fill="#EDEBE8" d="M371.658,445.814c-1.054-1.707-2.457-3.365-4.227-4.689c-1.752-1.342-3.9-2.219-5.971-2.568
			c-0.518-0.084-1.032-0.146-1.538-0.174l-0.433-0.025c-0.147-0.008-0.314-0.014-0.365-0.006l-0.24,0.014
			c0.076,0.008-0.135-0.01-0.13-0.008l-0.043,0.004l-0.087,0.004l-0.172,0.014c-0.918,0.07-1.857,0.221-2.795,0.461
			c-1.877,0.461-3.746,1.396-5.206,2.686c-1.487,1.268-2.487,2.863-3.141,4.395c-0.629,1.562-0.927,3.104-1.003,4.598
			c-0.066,1.498,0.043,2.922,0.416,4.354l1.396,0.123c1.286-2.234,2.827-4.266,4.464-5.35c0.789-0.564,1.605-0.818,2.275-0.893
			c0.689-0.059,1.282,0.072,1.915,0.258c0.317,0.1,0.646,0.232,0.989,0.389l0.064,0.025l0.031,0.014l0.016,0.006
			c0.025,0.002-0.166-0.012-0.071-0.002l0.231,0.061c0.106,0.021,0.097,0.035,0.104,0.051c0.015,0.016,0.005,0.025,0.037,0.043
			c0.118,0.068,0.222,0.145,0.315,0.219c0.373,0.305,0.517,0.646,0.672,0.984c0.273,0.676,0.532,1.807,0.584,3.324
			c0.041,1.502-0.15,3.277-0.578,5.08c-0.424,1.809-1.055,3.656-1.852,5.467c-1.596,3.629-3.828,7.094-6.505,10.229
			c-2.683,3.143-5.813,5.977-9.308,8.479c-0.879,0.619-1.766,1.24-2.688,1.82l-3.264,2.023c-2.316,1.5-4.594,3.123-6.768,4.953
			c-2.17,1.832-4.274,3.828-6.152,6.133c-1.896,2.273-3.596,4.844-4.848,7.729c-1.231,2.877-1.984,6.145-1.697,9.359
			c0.124,1.6,0.523,3.158,1.143,4.568c0.653,1.424,1.438,2.645,2.63,3.723l1.591-1.119c-0.154-1.09-0.191-2.334-0.023-3.414
			c0.143-1.102,0.461-2.123,0.865-3.064c0.838-1.881,2.066-3.461,3.541-4.887c2.088-2.023,4.623-3.738,7.357-5.295
			c-0.477,4.961-0.91,9.918-1.291,14.877c-0.392,4.625-0.686,9.25-1.033,13.873l-0.449,6.936c-0.036,0.66-0.08,0.957-0.127,1.363
			c-0.049,0.391-0.109,0.777-0.176,1.164c-0.137,0.771-0.318,1.535-0.521,2.293c-0.801,3.031-2.208,5.955-4.088,8.676
			c-1.855,2.738-4.189,5.271-6.848,7.467c-2.652,2.193-5.582,4.115-8.663,5.553c-3.075,1.438-6.261,2.463-9.287,2.945
			c-3.028,0.494-5.866,0.363-8.136-0.186c-2.293-0.562-3.969-1.514-5.377-2.869c-1.391-1.363-2.682-3.25-3.699-5.869
			c-1.025-2.592-1.703-5.826-2.051-9.342c-0.098-0.877-0.165-1.781-0.219-2.693l-0.064-1.385l-0.03-1.297l0.007-6.799
			c0.01-4.623,0.044-9.248-0.004-13.871c-0.086-9.25-0.057-18.498-0.239-27.746c-0.151-9.248-0.247-18.498-0.509-27.746
			l-0.339-13.871l-0.454-13.873l-0.105-3.24c-0.018-0.85-0.02-1.697,0.023-2.531c0.078-1.674,0.26-3.322,0.543-4.947
			c0.58-3.254,1.656-6.393,3.206-9.379c1.569-2.971,3.573-5.812,6.005-8.393c2.428-2.584,5.276-4.885,8.385-6.848
			c6.17-3.957,13.593-6.465,20.491-6.715c3.431-0.107,6.658,0.428,9.189,1.543c2.544,1.139,4.339,2.797,5.621,5.393
			c0.313,0.65,0.583,1.359,0.805,2.123c0.11,0.383,0.208,0.777,0.295,1.184l0.216,1.16c0.019,0.066,0.031,0.229,0.045,0.371
			l0.039,0.434l0.011,0.107c0.003-0.014,0.008,0.184,0.009-0.004l0.017,0.197l0.032,0.396l0.111,1.582
			c0.068,1.049,0.118,2.096,0.138,3.131c0.073,4.131-0.288,8.18-1.408,11.605c-1.152,3.418-3.014,6.055-6.185,7.494
			c-1.57,0.734-3.449,1.141-5.436,1.219c-0.994,0.043-2.013,0-3.037-0.104c-1.008-0.09-2.104-0.275-2.998-0.49l-1.796,4.195
			c1.217,0.674,2.315,1.16,3.528,1.615c1.197,0.436,2.436,0.787,3.719,1.045c2.557,0.512,5.322,0.656,8.155,0.123
			c2.824-0.52,5.655-1.826,8.007-3.705c2.375-1.865,4.218-4.248,5.636-6.695c2.841-4.945,4.134-10.166,4.976-15.219
			c0.203-1.27,0.375-2.533,0.512-3.793l0.176-1.889l0.037-0.471l0.02-0.234c0.001-0.262,0.004-0.135,0.006-0.221l0.007-0.109
			l0.027-0.434c0.009-0.145,0.02-0.273,0.021-0.496c0.018-0.828,0.01-1.564-0.016-2.301c-0.031-0.742-0.084-1.494-0.167-2.25
			c-0.167-1.516-0.449-3.057-0.87-4.596c-0.824-3.078-2.274-6.143-4.264-8.828c-1.985-2.691-4.47-4.977-7.145-6.75
			c-5.386-3.578-11.325-5.176-16.994-5.787c-5.699-0.592-11.279-0.209-16.652,0.902c-5.377,1.105-10.57,2.895-15.52,5.301
			c-4.937,2.428-9.613,5.508-13.887,9.219c-4.271,3.705-8.131,8.078-11.26,13.045c-3.135,4.955-5.569,10.469-7.1,16.219
			c-0.771,2.871-1.319,5.801-1.633,8.734c-0.167,1.465-0.267,2.932-0.33,4.395l-0.125,3.695l-0.453,13.873l-0.338,13.871
			c-0.264,9.248-0.357,18.498-0.51,27.746c-0.184,9.248-0.153,18.496-0.238,27.746c-0.049,4.623-0.015,9.248-0.006,13.871
			l0.033,7.076l0.06,2.166l0.108,2.082c0.089,1.393,0.204,2.797,0.367,4.217c0.676,5.662,1.957,11.561,4.459,17.514
			c1.254,2.967,2.826,5.936,4.791,8.777c1.961,2.846,4.354,5.531,7.102,7.875c2.741,2.348,5.836,4.336,9.084,5.84
			c3.248,1.512,6.635,2.543,9.98,3.15c6.719,1.213,13.193,0.711,19.111-0.625c5.938-1.355,11.403-3.605,16.398-6.504
			c4.996-2.895,9.578-6.381,13.625-10.479c4.038-4.098,7.58-8.77,10.383-13.996c2.759-5.24,4.76-11.053,5.583-17.133
			c0.204-1.516,0.326-3.047,0.38-4.578c0.023-0.768,0.031-1.533,0.02-2.299c-0.015-0.75-0.047-1.607-0.086-2.105l-0.449-6.936
			c-0.348-4.623-0.642-9.248-1.033-13.873c-0.574-7.457-1.26-14.914-2.051-22.369c0.426-0.225,0.854-0.443,1.272-0.682
			c5.104-2.859,9.83-6.641,13.772-11.225c3.938-4.582,7.107-9.947,9.045-15.904c0.963-2.98,1.617-6.107,1.838-9.371
			c0.205-3.262,0.015-6.672-0.992-10.176C373.431,449.309,372.701,447.533,371.658,445.814z"/>
		<path fill="#EDEBE8" d="M442.357,434.684c-0.23-1.678-0.588-3.398-1.109-5.152c-1.047-3.482-2.779-7.193-5.739-10.527
			c-1.482-1.646-3.27-3.164-5.284-4.316c-2.015-1.154-4.215-1.92-6.347-2.312c-4.312-0.768-8.178-0.131-11.535,0.865
			c-3.374,1.023-6.343,2.516-9.119,4.236c-2.773,1.725-5.346,3.721-7.747,6.01c-2.358,2.316-4.558,4.941-6.272,7.986
			c-1.757,3.014-3.023,6.443-3.629,10.055c-0.164,0.92-0.252,1.779-0.331,2.77l-0.079,1.338l-0.041,0.969l-0.16,3.867
			c-0.117,2.582-0.203,5.16-0.279,7.742c-0.172,5.16-0.256,10.318-0.31,15.479l-0.077,30.959c-0.004,3.191,0.183,6.543,0.968,10.156
			c0.792,3.582,2.141,7.574,5.055,11.355c1.429,1.883,3.292,3.639,5.425,5.045c2.145,1.387,4.551,2.398,6.93,2.9
			c2.395,0.508,4.764,0.244,6.83-0.334c2.078-0.578,3.885-1.359,5.63-1.92c3.522-1.021,6.661-2.445,9.545-4.23
			c2.888-1.771,5.538-3.863,7.956-6.326c2.41-2.465,4.584-5.326,6.266-8.691c0.832-1.684,1.533-3.488,2.062-5.4
			c0.264-0.955,0.467-1.939,0.629-2.939c0.078-0.502,0.145-1.008,0.201-1.518l0.121-1.404c0.002,0.012,0.006-0.316,0.006-0.205
			l0.006-0.061l0.01-0.121l0.02-0.242l0.037-0.484c0.021-0.322,0.033-0.645,0.039-0.969l0.025-1.932l0.061-3.871l0.123-7.74
			l0.215-15.48l0.184-15.479c0.037-5.158,0.422-10.32,0.113-15.479C442.682,438.143,442.598,436.33,442.357,434.684z
			 M420.466,504.852c-0.279,1.4-0.875,2.947-1.773,4.408c-0.895,1.459-2.1,2.818-3.466,3.895c-1.369,1.057-2.899,1.877-4.317,2.156
			c-0.723,0.088-1.452-0.301-1.924-0.803c-0.48-0.512-0.678-1.031-0.744-1.203c-0.084-0.164-0.028-0.25,0.021-0.334
			c0.037-0.068,0.064-0.152-0.026-0.338c-0.142-0.373-0.625-1.326-0.938-2.764c-0.316-1.43-0.512-3.254-0.527-5.219l-0.078-30.959
			c-0.053-5.16-0.138-10.318-0.31-15.479c-0.075-2.582-0.161-5.16-0.278-7.742l-0.161-3.867l-0.04-0.969
			c-0.002,0.223-0.002,0.027-0.004,0.061l-0.002-0.061l-0.006-0.121l-0.01-0.24c-0.007-0.176-0.01-0.148-0.018-0.234
			c-0.029-0.297-0.018-0.725-0.033-1.088c-0.006-1.514,0.124-3.107,0.441-4.805c0.354-1.674,0.898-3.455,1.787-5.113
			c0.854-1.684,2.054-3.23,3.47-4.449c1.412-1.217,3.063-2.08,4.607-2.438c1.542-0.371,2.952-0.109,3.579,0.504
			c0.326,0.291,0.468,0.646,0.518,1.01c0.059,0.354,0.048,0.738,0.035,1.197c-0.016,0.9-0.074,2.193-0.162,3.76l-0.17,2.525
			c-0.062,0.926-0.16,1.697-0.236,3.139c-0.308,5.158,0.077,10.32,0.113,15.479l0.184,15.479l0.216,15.48l0.122,7.74l0.06,3.871
			l0.026,1.932c0.006,0.324,0.018,0.646,0.039,0.969l0.037,0.484l0.02,0.242l0.011,0.121l0.005,0.061
			c0.001,0.148,0.005-0.139,0.006-0.086l0.033,0.471l0.035,0.059l0.047,0.412c0.025,0.281,0.027,0.574,0.027,0.879
			C420.684,503.488,420.612,504.152,420.466,504.852z"/>
		<path fill="#EDEBE8" d="M509.613,402.389c-0.23-1.678-0.588-3.4-1.109-5.15c-1.047-3.484-2.779-7.195-5.738-10.529
			c-1.482-1.646-3.27-3.164-5.285-4.316c-2.014-1.154-4.215-1.92-6.348-2.311c-4.311-0.77-8.176-0.133-11.533,0.863
			c-3.375,1.023-6.344,2.516-9.119,4.236c-2.773,1.725-5.346,3.721-7.748,6.01c-2.359,2.314-4.557,4.939-6.271,7.986
			c-1.758,3.016-3.025,6.445-3.629,10.057c-0.164,0.918-0.252,1.777-0.332,2.768l-0.078,1.338l-0.041,0.969l-0.16,3.869
			c-0.117,2.582-0.203,5.16-0.279,7.74c-0.172,5.16-0.256,10.318-0.311,15.479l-0.076,30.959c-0.004,3.191,0.182,6.545,0.967,10.154
			c0.793,3.586,2.141,7.576,5.057,11.357c1.428,1.883,3.291,3.637,5.424,5.045c2.145,1.387,4.551,2.398,6.93,2.9
			c2.395,0.508,4.764,0.244,6.828-0.334c2.08-0.578,3.887-1.359,5.631-1.92c3.523-1.02,6.662-2.443,9.545-4.229
			c2.889-1.771,5.537-3.865,7.957-6.328c2.41-2.465,4.584-5.328,6.264-8.691c0.834-1.684,1.535-3.49,2.064-5.4
			c0.264-0.955,0.467-1.939,0.629-2.941c0.078-0.5,0.145-1.006,0.201-1.514l0.121-1.406c0.002,0.014,0.004-0.314,0.006-0.205
			l0.004-0.061l0.012-0.121l0.02-0.242l0.037-0.484c0.021-0.322,0.033-0.645,0.039-0.967l0.025-1.936l0.061-3.869l0.121-7.74
			l0.217-15.48l0.184-15.479c0.037-5.158,0.422-10.318,0.113-15.479C509.938,405.848,509.852,404.035,509.613,402.389z
			 M487.723,472.555c-0.281,1.402-0.875,2.949-1.773,4.41c-0.895,1.459-2.1,2.82-3.467,3.896c-1.369,1.055-2.898,1.875-4.316,2.154
			c-0.725,0.086-1.453-0.299-1.924-0.801c-0.482-0.512-0.678-1.033-0.744-1.205c-0.086-0.166-0.029-0.252,0.021-0.334
			c0.037-0.068,0.064-0.152-0.025-0.34c-0.145-0.371-0.627-1.324-0.939-2.762c-0.316-1.43-0.512-3.256-0.527-5.219l-0.078-30.959
			c-0.055-5.16-0.137-10.318-0.311-15.479c-0.074-2.58-0.16-5.158-0.277-7.74l-0.162-3.869l-0.039-0.969
			c-0.002,0.223-0.002,0.027-0.004,0.061l-0.002-0.061l-0.006-0.119l-0.01-0.242c-0.008-0.178-0.01-0.148-0.018-0.234
			c-0.029-0.297-0.018-0.725-0.033-1.088c-0.006-1.514,0.123-3.105,0.441-4.805c0.354-1.674,0.898-3.455,1.787-5.115
			c0.854-1.682,2.053-3.229,3.469-4.447c1.412-1.215,3.064-2.078,4.607-2.438c1.543-0.369,2.951-0.109,3.58,0.504
			c0.326,0.293,0.467,0.648,0.518,1.01c0.057,0.354,0.047,0.738,0.035,1.197c-0.016,0.9-0.076,2.193-0.164,3.76l-0.17,2.525
			c-0.061,0.926-0.16,1.697-0.234,3.139c-0.309,5.16,0.076,10.32,0.113,15.479l0.182,15.479l0.217,15.48l0.121,7.74l0.061,3.869
			l0.025,1.936c0.006,0.322,0.018,0.645,0.041,0.967l0.035,0.484l0.021,0.242l0.01,0.121l0.006,0.061
			c0,0.15,0.004-0.139,0.006-0.086l0.033,0.469l0.035,0.061l0.047,0.412c0.025,0.283,0.025,0.574,0.027,0.879
			C487.939,471.193,487.867,471.857,487.723,472.555z"/>
		<path fill="#EDEBE8" d="M735.035,329.709c0.033,0.795,0.094,1.598,0.17,2.414c0.33,3.262,0.961,6.76,2.406,10.391
			c1.438,3.594,3.76,7.342,6.973,10.34c3.188,3.025,7.107,5.043,10.775,6.17c3.701,1.143,7.201,1.492,10.447,1.514
			c6.49-0.084,12.088-1.371,17.318-3.047c5.217-1.701,10.055-3.809,14.695-6.148c4.635-2.346,9.061-4.938,13.336-7.736
			c4.273-2.799,8.398-5.797,12.354-9.092c1.979-1.645,3.924-3.354,5.822-5.166c1.918-1.824,3.734-3.697,5.457-5.611
			c6.877-7.662,12.643-15.893,17.717-24.521c5.035-8.642,9.363-17.695,12.555-27.23c1.572-4.771,2.887-9.649,3.777-14.642
			c0.924-4.979,1.424-10.095,1.195-15.254c-0.225-5.146-1.219-10.365-3.324-15.173c-2.088-4.807-5.295-9.115-9.232-12.388
			l-3.047,3.454c3.172,3.118,5.576,6.9,6.947,11.061c1.396,4.154,1.857,8.613,1.66,13.074c-0.195,4.469-1.027,8.945-2.248,13.332
			c-1.273,4.377-2.936,8.665-4.898,12.822c-3.904,8.326-8.773,16.234-14.262,23.61c-5.492,7.358-11.621,14.27-18.248,20.167
			c-1.66,1.465-3.334,2.865-5.051,4.143c-1.727,1.299-3.537,2.547-5.391,3.75c-3.715,2.393-7.584,4.631-11.533,6.662
			c-7.887,4.025-16.205,7.369-24.156,9.074c-3.934,0.826-7.797,1.271-10.832,0.967c-1.5-0.111-2.766-0.395-3.59-0.752
			c-0.85-0.357-1.191-0.727-1.459-1.02c-0.26-0.301-0.533-0.721-0.844-1.592c-0.32-0.844-0.641-2.109-0.789-3.627
			c-0.039-0.379-0.064-0.775-0.092-1.182l-0.035-0.518l-0.008-0.127l-0.004-0.225l-0.012-0.451l-0.051-3.473l-0.1-7.215
			l-0.201-12.793c1.41-1.02,3.109-2.129,4.861-3.23c3.834-2.402,7.965-4.846,12.109-7.387c4.162-2.532,8.383-5.15,12.586-8.006
			c4.205-2.861,8.406-5.93,12.533-9.545c2.062-1.812,4.107-3.768,6.098-5.982c1.986-2.216,3.932-4.697,5.67-7.678
			c1.723-2.969,3.271-6.535,3.939-10.731c0.164-1.045,0.27-2.119,0.309-3.208l0.014-0.82l-0.006-0.653l-0.029-1.075
			c-0.033-0.929-0.082-1.651-0.158-2.485c-0.07-0.81-0.172-1.632-0.297-2.461c-0.496-3.308-1.438-6.802-3.111-10.226
			c-1.656-3.414-4.115-6.715-7.152-9.291c-3.027-2.596-6.525-4.43-9.969-5.554c-3.457-1.133-6.869-1.616-10.127-1.717
			c-6.527-0.187-12.506,1.06-18.08,3.054c-5.568,2.025-10.76,4.85-15.516,8.543c-4.742,3.685-9.146,8.258-12.416,14.182
			c-1.625,2.951-2.928,6.254-3.693,9.789c-0.379,1.768-0.629,3.588-0.717,5.423c-0.027,0.458-0.033,0.918-0.043,1.378l-0.006,0.946
			l-0.014,1.804c-0.088,9.621-0.238,19.24-0.424,28.861l-0.148,9.49c-0.047,0.289-0.088,0.589-0.111,0.859l-0.049,0.627l0.135,0.008
			l-0.279,17.878l-0.1,7.215l-0.045,3.744l0.004,0.998L735.035,329.709z M757.309,305.213c0.018-0.018,0.053-0.049,0.074-0.07
			C757.234,305.316,757.238,305.279,757.309,305.213z M759.295,299.848C759.295,299.827,759.301,299.768,759.295,299.848
			L759.295,299.848z M758.545,255.654c0.016-0.567,0.082-1.14,0.195-1.726c0.23-1.169,0.662-2.4,1.332-3.662
			c1.322-2.522,3.562-5.119,6.34-7.295c2.787-2.166,6.072-3.958,9.455-5.174c3.373-1.217,6.891-1.85,9.887-1.738
			c1.49,0.068,2.824,0.318,3.887,0.692c1.072,0.376,1.848,0.85,2.439,1.38c0.594,0.537,1.057,1.157,1.482,2.066
			c0.42,0.899,0.771,2.096,0.961,3.544c0.047,0.36,0.09,0.732,0.115,1.122c0.031,0.363,0.053,0.842,0.057,1.115l0.01,0.729
			l0.002,0.225v0.113c0.002,0.082-0.002-0.225-0.002-0.09c-0.004,0.027-0.004,0.055-0.004,0.082
			c-0.012,0.111-0.027,0.236-0.053,0.379c-0.102,0.561-0.436,1.504-1.139,2.662c-1.396,2.34-4.062,5.175-7.143,7.786
			c-3.098,2.644-6.643,5.188-10.363,7.64c-3.727,2.454-7.641,4.827-11.67,7.184c-1.83,1.062-3.68,2.121-5.555,3.194
			c-0.09-5.714-0.17-11.428-0.221-17.142l-0.014-1.804l-0.006-0.857C758.543,255.938,758.537,255.795,758.545,255.654z
			 M759.287,299.969c-0.002,0.047-0.006,0.103-0.012,0.178c-0.014,0.223-0.047,0.47-0.086,0.709l-0.014-0.894L759.287,299.969z"/>
		<path fill="#EDEBE8" d="M623.545,434.652c3.475-1.014,6.58-2.42,9.43-4.189c2.854-1.756,5.473-3.834,7.857-6.273
			c2.377-2.443,4.518-5.275,6.166-8.6c0.82-1.662,1.506-3.441,2.023-5.322c0.26-0.943,0.457-1.912,0.615-2.895
			c0.076-0.494,0.141-0.994,0.195-1.494l0.117-1.385l0.006-0.199l0.004-0.061l0.01-0.123l0.02-0.24l0.035-0.484
			c0.021-0.322,0.033-0.643,0.039-0.967l0.021-1.936l0.051-3.869l0.102-7.738l0.201-15.48c0.107-10.322,0.342-20.639,0.312-30.959
			c0.014-1.145-0.102-2.938-0.408-4.564c-0.281-1.656-0.672-3.348-1.221-5.062c-1.1-3.41-2.766-7.027-5.627-10.283
			c-1.428-1.607-3.146-3.094-5.086-4.24c-1.941-1.143-4.068-1.918-6.145-2.328c-4.197-0.811-8.018-0.232-11.334,0.746
			c-2.262,0.68-4.33,1.59-6.295,2.625l0.613-48.621l0.08-6.408l0.029-3.203l0.008-3.336c-0.059-4.903-0.389-9.736-1.4-14.938
			c-0.512-2.587-1.203-5.245-2.221-7.977c-1.018-2.726-2.367-5.546-4.324-8.324c-1.951-2.761-4.586-5.5-7.955-7.562
			c-3.348-2.079-7.35-3.337-11.219-3.581c-1.936-0.131-3.844-0.036-5.684,0.246c-0.461,0.07-0.916,0.153-1.369,0.246l-0.871,0.197
			l-0.43,0.109l-0.998,0.292l-0.777,0.264c-0.51,0.185-1.004,0.384-1.488,0.595c-3.855,1.721-6.703,4.137-8.959,6.58
			c-2.256,2.467-3.945,5.033-5.336,7.6c-1.389,2.567-2.463,5.146-3.334,7.716c-1.74,5.138-2.676,10.245-3.133,15.269
			c-0.227,2.511-0.332,5.012-0.338,7.474l-0.021,6.408c-0.061,17.089-0.137,34.176-0.062,51.266l0.029,12.818l0.084,9.428
			c-0.953-0.061-1.895-0.07-2.814-0.025c-5.482,0.291-10.18,2.172-14.117,4.629c-7.896,4.969-13.105,12.332-16.242,20.094
			c-1.547,3.904-2.566,7.934-3.139,11.945c-0.287,2.008-0.455,4.014-0.525,6.004l-0.162,4.828
			c-0.473,12.645-0.561,25.293,0.08,37.939c0.148,3.16,0.352,6.322,0.57,9.484c0.045,0.791,0.111,1.58,0.18,2.371l0.223,2.684
			c0.195,2.006,0.465,3.984,0.934,6.037c0.957,4.057,2.439,8.41,5.395,12.451c1.467,2.002,3.27,3.926,5.43,5.449
			c2.146,1.531,4.592,2.662,7.053,3.305c2.469,0.646,4.939,0.766,7.236,0.564c2.305-0.191,4.453-0.766,6.42-1.537
			c1.975-0.766,3.775-1.762,5.404-2.92c0.254-0.18,0.498-0.369,0.746-0.557c-0.021,0.541-0.027,1.076-0.057,1.617
			c-0.139,2.936-0.451,5.891-0.869,8.969c-0.426,3.07-1.023,6.242-1.535,9.605l1.361,0.822c5.389-4.076,9.814-9.58,12.992-15.893
			c3.17-6.309,5.059-13.148,6.121-19.893c0.268-1.689,0.498-3.379,0.664-5.062c0.17-1.658,0.293-3.436,0.385-4.969
			c0.193-3.16,0.412-6.322,0.562-9.486c0.354-6.322,0.574-12.643,0.74-18.969c0.314-12.646,0.168-25.291,0.025-37.938l-0.025-2.373
			l-0.004-0.152h0.162c0.174-8.547,0.297-17.09,0.363-25.637l0.113-12.816l0.031-12.818c0.072-17.09-0.002-34.177-0.064-51.266
			l-0.021-6.408c-0.004-1.811,0.066-3.583,0.215-5.327c0.305-3.48,0.93-6.834,1.891-9.796c0.936-2.938,2.336-5.538,3.584-6.914
			c0.602-0.689,1.119-1.005,1.137-1.013c0,0-0.006,0-0.018,0.002c-0.006,0.002-0.014,0.004-0.021,0.004l0.045-0.01l0.139-0.031
			c0.244-0.045,0.459-0.06,0.631-0.058c0.346,0.019,0.494,0.053,0.762,0.188c0.26,0.137,0.686,0.47,1.205,1.166
			c1.057,1.377,2.174,4.13,2.826,7.314c0.68,3.172,1.02,6.896,1.109,10.531l0.148,12.686l0.645,51.267l0.16,12.818l0.26,12.746
			c0.047,2.518,0.076,5.033,0.113,7.547c-0.025,2.096-0.033,4.188-0.025,6.279c-0.01,4.377,0.09,8.75,0.207,13.125
			c0.086,16.537-0.332,32.996,0.357,49.828c0.104,2.174,0.217,4.34,0.357,6.549l0.234,3.086c0.066,0.99,0.117,1.984,0.15,2.979
			c0.154,3.977,0.086,7.98-0.258,11.967c-0.324,3.988-0.945,7.961-1.9,11.861c-0.965,3.908-2.285,7.709-4.281,11.299l2.621,2.277
			c10.982-9.559,15.484-24.412,17.301-38.334c0.834,0.332,1.678,0.623,2.525,0.826c2.332,0.547,4.666,0.33,6.705-0.254
			C620.047,436.006,621.826,435.211,623.545,434.652z M556.111,411.375c0.164,6.326,0.385,12.646,0.738,18.969
			c0.15,3.164,0.369,6.326,0.562,9.486l0.588,8.932c0.059,1.111,0.107,2.219,0.154,3.322c-0.77,0.434-1.549,0.832-2.334,1.16
			c-1.193,0.475-2.391,0.844-3.566,1.084c-1.18,0.219-2.328,0.326-3.393,0.301c-2.148-0.07-3.893-0.693-4.826-1.57
			c-0.482-0.414-0.801-0.859-1.049-1.363c-0.242-0.502-0.475-1.031-0.66-1.711c-0.355-1.342-0.676-3.186-0.662-5.363
			c0-1.072,0.014-2.254,0.117-3.404l0.178-2.061c0.068-0.791,0.135-1.58,0.18-2.371c0.219-3.162,0.422-6.324,0.57-9.484
			c0.639-12.646,0.553-25.295,0.08-37.939l-0.156-4.658c-0.049-1.172-0.041-2.326,0.033-3.459c0.133-2.268,0.533-4.447,1.191-6.461
			c0.652-2.014,1.541-3.887,2.676-5.467c1.111-1.592,2.471-2.889,3.818-3.777c1.352-0.877,2.701-1.273,3.48-1.307
			c0.391-0.021,0.623,0.025,0.732,0.057c0.111,0.049,0.113,0.068,0.188,0.141c0.066,0.074,0.213,0.242,0.41,0.623
			c0.193,0.375,0.418,0.959,0.59,1.711c0.053,0.23,0.098,0.482,0.141,0.742c0.021,1.137,0.035,2.27,0.059,3.406h0.16v0.152
			l-0.027,2.373C555.941,386.084,555.795,398.729,556.111,411.375z M585.717,238.987l0.234-0.062
			C585.896,238.943,585.797,238.973,585.717,238.987z M585.93,238.928l0.025-0.006l0.012-0.003
			C585.953,238.922,585.941,238.925,585.93,238.928z M616.627,416.893c-0.271-0.248-0.186-0.1-0.719-0.479
			c-0.467-0.379-1.281-1.439-1.814-3.006c-0.568-1.553-0.857-3.529-0.871-5.602l0.027-7.738l0.129-7.742l0.451-15.479
			c0.143-5.158,0.275-10.318,0.264-15.48c0.01-2.578,0.006-5.16-0.039-7.738l-0.062-2.951c0.033-0.998,0.072-1.998,0.104-2.996
			c0.039-1.299,0.078-2.598,0.117-3.896c0.076-0.529,0.166-1.062,0.283-1.607c0.363-1.703,0.939-3.496,1.842-5.178
			c0.871-1.701,2.084-3.271,3.521-4.512c1.432-1.236,3.111-2.115,4.695-2.492c1.58-0.389,3.037-0.188,3.779,0.383
			c0.383,0.275,0.598,0.619,0.719,0.994c0.135,0.359,0.193,0.775,0.234,1.273c0.084,0.98,0.092,2.365-0.051,4.006
			c-0.068,0.82-0.162,1.695-0.281,2.611c-0.131,0.947-0.258,1.738-0.248,3.174c-0.029,10.32,0.205,20.637,0.312,30.959l0.201,15.48
			l0.102,7.738l0.051,3.869l0.023,1.936c0.006,0.324,0.016,0.645,0.037,0.967l0.035,0.484l0.02,0.24l0.01,0.123l0.006,0.061
			c0,0.145,0.004-0.131,0.004-0.078l0.031,0.469l0.033,0.078l0.041,0.438c0.021,0.297,0.018,0.604,0.014,0.924
			c-0.008,0.643-0.096,1.334-0.256,2.053c-0.311,1.443-0.939,3.02-1.871,4.5c-0.928,1.482-2.164,2.859-3.564,3.951
			c-1.402,1.07-2.967,1.908-4.432,2.197c-0.75,0.09-1.506-0.314-2.006-0.809C616.986,417.498,616.756,417.029,616.627,416.893z"/>
		<path fill="#EDEBE8" d="M898.951,224.633c-1.469-10.881-4.545-21.538-9.076-31.656c-2.291-5.049-4.971-9.953-8.053-14.656
			c-3.094-4.695-6.635-9.154-10.617-13.31c-3.992-4.142-8.488-7.914-13.459-11.177c-4.979-3.24-10.473-5.91-16.332-7.783
			c-5.861-1.848-12.078-2.895-18.324-2.99c-6.252-0.121-12.5,0.679-18.498,2.162c-5.996,1.503-11.768,3.635-17.211,6.25
			c-2.719,1.314-5.365,2.733-7.963,4.211c-2.588,1.49-5.096,3.082-7.568,4.706l0.232,0.286l0,0
			c-6.799,5.688-7.754,15.88-2.131,22.76c5.623,6.879,15.697,7.844,22.498,2.156l0.232,0.285c5.865-6.58,12.637-11.99,20.025-15.411
			c7.379-3.411,15.41-4.753,23.477-3.403c8.062,1.283,16.047,5.266,22.959,11.059c3.48,2.876,6.674,6.221,9.588,9.858
			c2.928,3.629,5.529,7.589,7.807,11.759c9.123,16.676,13.174,36.745,10.404,55.804c-0.684,4.751-1.795,9.466-3.316,13.964
			c-1.623,4.727-3.443,9.422-5.406,14.031c-3.994,9.197-8.682,18.08-14.035,26.535c-5.318,8.486-11.459,16.43-18.084,23.934
			c-3.322,3.746-6.785,7.371-10.371,10.873c-3.607,3.48-7.34,6.834-11.166,10.08c-7.66,6.484-15.713,12.525-24.102,18.092
			c-8.377,5.58-17,10.814-25.848,15.672c-8.84,4.875-17.854,9.453-26.986,13.811l-21.959,10.24l-0.631-27.852
			c-0.236-10.312-0.5-20.627-0.811-30.941l-0.438-15.471l-0.35-15.457c-0.219-10.293-0.424-20.574-0.424-30.775
			c0.004-5.1,0.062-10.18,0.252-15.205c0.203-5.024,0.455-9.996,0.805-14.881c0.369-4.885,0.875-9.662,1.799-14.367
			c0.906-4.721,2.342-9.349,4.168-14.241l-2.607-1.896c-4.178,3.441-7.617,7.99-10.16,12.978c-2.559,4.996-4.236,10.349-5.4,15.652
			c-1.176,5.315-1.82,10.629-2.256,15.896c-0.441,5.268-0.744,10.498-0.988,15.709c-0.953,20.833-1.137,41.427-1.816,62.058
			c-0.139,4.639-0.266,9.275-0.389,13.912c-0.893,0.127-1.777,0.244-2.641,0.336c-3.006,0.309-5.859,0.377-7.941-0.092
			c-1.037-0.195-1.844-0.531-2.357-0.912c-0.525-0.357-0.771-0.705-0.971-1.102c-0.189-0.396-0.438-0.818-0.719-1.494
			c-0.271-0.666-0.594-1.533-0.906-2.553c-0.633-2.051-1.156-4.691-1.578-7.512c-0.406-2.838-0.738-5.877-0.988-9.004
			c-0.531-6.262-0.883-12.852-1.281-19.52c-0.191-3.336-0.398-6.701-0.635-10.082l-0.365-5.086l-0.203-2.555
			c-0.07-0.949-0.146-2.002-0.258-3.012c-0.461-4.086-1.268-8.311-2.922-12.626c-0.824-2.152-1.873-4.323-3.254-6.422
			c-1.373-2.1-3.068-4.141-5.125-5.895c-2.074-1.732-4.504-3.14-7.043-4.018c-2.533-0.903-5.16-1.228-7.611-1.148
			c-2.459,0.076-4.77,0.533-6.883,1.286c-2.109,0.751-4.055,1.699-5.803,2.887c-3.494,2.339-6.359,5.354-8.309,8.878
			c-0.98,1.75-1.693,3.654-2.053,5.59c-0.344,1.936-0.299,3.932,0.301,5.654c1.221-3.432,3.65-5.609,6.195-7.229
			c2.588-1.586,5.414-2.592,8.129-3.004c1.363-0.184,2.67-0.284,3.895-0.172c1.221,0.119,2.328,0.35,3.25,0.729
			c1.865,0.811,2.82,1.878,3.467,3.242c1.41,2.57,1.984,7.604,1.605,13.138c-0.037,0.703-0.098,1.367-0.162,2.133l-0.197,2.594
			c-0.115,1.732-0.24,3.471-0.318,5.213c-0.186,3.482-0.303,6.982-0.33,10.508c-0.059,7.053,0.164,14.197,1.055,21.59
			c0.469,3.697,1.076,7.465,2.051,11.35c0.975,3.891,2.258,7.912,4.424,12.123c1.096,2.102,2.434,4.252,4.199,6.332
			c1.756,2.064,3.928,4.117,6.549,5.648c2.6,1.549,5.529,2.564,8.309,2.986c2.793,0.396,5.404,0.275,7.754-0.096
			c3.545-0.625,6.566-1.746,9.285-3.104c-0.01,0.482-0.023,0.965-0.033,1.447l-0.701,30.943c-0.043,2.234-0.09,4.471-0.135,6.707
			c-4.359,2.154-8.709,4.354-13.039,6.633c-9.182,4.846-18.279,10.039-27.119,15.982c-8.826,5.939-17.488,12.621-25.154,20.895
			c-7.66,8.227-14.086,18.309-17.992,29.363c-1.963,5.514-3.359,11.199-4.24,16.893c-0.426,2.854-0.732,5.703-0.938,8.543
			l-0.135,2.146l-0.098,2.072c-0.049,1.562-0.07,3.125-0.002,4.725c0.279,6.346,1.588,13.121,4.828,19.566
			c3.166,6.436,8.52,12.35,15.094,15.998c3.268,1.834,6.771,3.141,10.293,3.939c3.529,0.793,7.072,1.08,10.516,0.98
			c6.9-0.207,13.369-1.947,19.211-4.523c11.709-5.223,20.979-13.672,28.062-23.145c7.1-9.523,12.111-20.129,15.557-30.961
			c3.42-10.861,5.303-21.965,6.131-32.984c0.207-2.754,0.33-5.51,0.396-8.256c0.033-1.361,0.049-2.756,0.051-4.18l-0.033-3.984
			l-0.234-15.469c-0.088-6.545-0.221-13.09-0.355-19.635l27.014-13.574c9.184-4.709,18.268-9.648,27.191-14.906
			c17.855-10.477,35.098-22.256,50.939-35.908c3.947-3.428,7.803-6.971,11.535-10.65c3.74-3.67,7.389-7.443,10.881-11.369
			c7.004-7.838,13.381-16.256,19.195-25.053c5.799-8.811,10.896-18.1,15.279-27.707c2.221-4.797,4.277-9.646,6.158-14.605
			c1.945-5.201,3.369-10.523,4.328-15.95C900.367,246.6,900.465,235.498,898.951,224.633z M704.482,462.275l-0.082,3.752
			c-0.039,1.156-0.088,2.338-0.154,3.555c-0.131,2.404-0.314,4.799-0.535,7.182c-0.91,9.521-2.729,18.85-5.686,27.592
			c-2.928,8.738-6.98,16.934-12.271,23.826c-5.266,6.863-11.789,12.496-18.834,15.559c-3.498,1.525-7.086,2.391-10.391,2.461
			c-3.311,0.072-6.266-0.613-8.652-1.916c-2.387-1.311-4.318-3.225-5.852-5.936c-1.518-2.699-2.562-6.197-2.98-10.117
			c-0.125-0.973-0.189-1.988-0.244-3.004l-0.055-1.797l-0.027-1.719c-0.014-2.312,0.051-4.609,0.211-6.883
			c0.291-4.547,0.914-9.016,2.002-13.348c1.074-4.336,2.58-8.545,4.553-12.59c1.963-4.049,4.424-7.908,7.246-11.594
			c5.66-7.371,12.889-13.893,20.785-19.713c7.926-5.807,16.484-10.998,25.236-15.955c2.027-1.145,4.066-2.271,6.115-3.393
			c-0.051,2.857-0.111,5.711-0.15,8.568L704.482,462.275z"/>
	</g>
</g>
</svg>
