<?xml version="1.0" encoding="utf-8"?>
<!-- Generator: Adobe Illustrator 19.2.1, SVG Export Plug-In . SVG Version: 6.00 Build 0)  -->
<!DOCTYPE svg PUBLIC "-//W3C//DTD SVG 1.0//EN" "http://www.w3.org/TR/2001/REC-SVG-20010904/DTD/svg10.dtd" [
	<!ENTITY ns_extend "http://ns.adobe.com/Extensibility/1.0/">
	<!ENTITY ns_ai "http://ns.adobe.com/AdobeIllustrator/10.0/">
	<!ENTITY ns_graphs "http://ns.adobe.com/Graphs/1.0/">
	<!ENTITY ns_vars "http://ns.adobe.com/Variables/1.0/">
	<!ENTITY ns_imrep "http://ns.adobe.com/ImageReplacement/1.0/">
	<!ENTITY ns_sfw "http://ns.adobe.com/SaveForWeb/1.0/">
	<!ENTITY ns_custom "http://ns.adobe.com/GenericCustomNamespace/1.0/">
	<!ENTITY ns_adobe_xpath "http://ns.adobe.com/XPath/1.0/">
]>
<svg version="1.0" id="Layer_1" xmlns:x="&ns_extend;" xmlns:i="&ns_ai;" xmlns:graph="&ns_graphs;"
	 xmlns="http://www.w3.org/2000/svg" xmlns:xlink="http://www.w3.org/1999/xlink" x="0px" y="0px" viewBox="0 0 1000 1007.4"
	 enable-background="new 0 0 1000 1007.4" xml:space="preserve">
<metadata>
	<sfw  xmlns="&ns_sfw;">
		<slices></slices>
		<sliceSourceBounds  bottomLeftOrigin="true" height="1007.4" width="1000" x="0" y="-1007.4"></sliceSourceBounds>
	</sfw>
</metadata>
<g>
	<g>
		<path fill="#EDEBE8" d="M448.4,161.3c-2.7,1.5-4.4,4.3-4.5,7.4c-1.7,40.7-24,67.7-43.1,78.7c-5,2.9-10.7,5.8-16.6,7.9c-2.1,0.8-4.2-1.4-3.2-3.5
			c11.1-24.4,20.7-58.5,20.7-103.5c0-34.7-19.4-50.2-38.6-50.2c-15.8,0-31.4,9.9-42.7,27.1c-8,12.1-17.4,33.5-17.4,66.8
			c0,21.4,2.6,39.8,7.6,54.6c3.6,10.5,8.5,19.3,14.5,26.2c1.4,1.6,1.2,3.9-0.3,5.3c-10.5,10-20.5,14.8-27.1,14.8
			c-3.2,0-4.5-1.1-5.4-2.2c-2.2-2.8-3.5-8.4-3.5-15.2V200c0-16.4-6.5-29.6-17.8-36.1c-10.6-6.1-23.6-5.6-35.8,1.4
			c-1.4,0.8-2.7,1.6-4.1,2.5c-1.7,1.1-4-0.1-4-2.1V92.2c0-3.9-4.3-6.4-7.7-4.5l-19.9,11.4c-2.8,1.6-4.5,4.6-4.5,7.8v264.6
			c0,3.9,4.3,6.4,7.7,4.5l19.9-11.4c2.8-1.6,4.5-4.6,4.5-7.8V254.9c0-29.6,4-50.2,24.1-61.8c0,0,0,0,0.1,0c2-1.2,4.6,0.1,5,2.3
			c0.2,1.2,0.4,2.7,0.4,4.6v75.4c0,14.6,3.5,26.5,10.5,35.3c7.4,9.2,18.2,14.3,30.5,14.3c19,0,39.4-11.6,57.1-31.8
			c1.4-1.6,3.4-2.4,5.5-2.2c16.4,1.6,35.3-3.7,56.4-15.7c19.4-11.1,35.2-28.5,45.7-50.5c8.9-18.6,13.8-40.2,13.8-61v-9.5
			c0-3.9-4.3-6.4-7.7-4.5L448.4,161.3z M348.9,244.5c-0.9,1.8-3.6,1.9-4.5,0.1c-6.1-11.6-9.4-29.7-9.4-52.5
			c0-19.8,4.3-37.2,12.2-49.1c6.5-10,13.1-12.6,15.9-12.6c3.7,0,6.6,7.8,6.6,18.1C369.6,184.4,362.3,217.8,348.9,244.5z"/>
		<path fill="#EDEBE8" d="M288.7,5.1c0-3.9-4.3-6.4-7.7-4.5L150.6,75.4c-33.6,18.8-55.8,37.3-69.9,58.1c-13.1,19.3-19.2,40.9-19.2,67.9v9.5
			c0,3.9,4.3,6.4,7.7,4.5l20.6-11.8c2.3-1.3,3.8-3.8,3.9-6.5c0.8-27.3,9.4-49.9,42.7-74.6c2.5-1.9,6.2-0.1,6.2,3.1l0,192.2
			c0,22.2-2.3,37.2-7.3,47.1c-4.2,8.4-10.8,14.4-22.7,20.9c-1.4,0.7-4.9,2.2-8.7-0.1c-7.2-4.3-9.3-16.7-9.9-25
			c-0.2-2.8-3.3-4.5-5.8-3.1l-19.6,11.2c-3.5,2-5.2,6.1-4.3,10c3.2,13,9.8,26.5,23.1,34.4c6.4,3.8,13.6,5.8,20.7,5.8
			c6.7,0,13.4-1.7,19.6-5c12-6.5,27-16.3,36.2-34.8c7.4-14.8,10.7-33.8,10.7-61.5V109.1c0-6.4,3.4-12.4,9-15.6l100.6-57.7
			c2.8-1.6,4.5-4.6,4.5-7.8V5.1z"/>
	</g>
	<g>
		<circle fill="#EDEBE8" cx="272.7" cy="383.5" r="19.2"/>
	</g>
	<path fill="#EDEBE8" d="M95.7,452.4l-10.5,6c-2.6,1.5-4.4,4-5,7c-3.6,18.8-22.9,51-48.6,68.9c-3.8,2.6-4.9,7.8-2.6,11.8l8.4,14.7
		c1.8,3.2,6,4.2,9.1,2.2c10.6-6.9,20.7-15.8,30-26.2c1.6-1.8,4.5-0.7,4.5,1.7v132.4c0,22.2-2.3,37.2-7.3,47.1
		c-4.2,8.4-10.8,14.4-22.7,20.9c-1.4,0.7-4.9,2.2-8.7-0.1c-9.4-5.6-10.2-25.3-10.2-31.2v-11.7c0-3-3.2-4.8-5.8-3.3L4.5,705
		c-2.9,1.7-4.7,4.9-4.5,8.3c0.8,16.6,5.6,41.2,25.7,53.2c6.4,3.8,13.6,5.8,20.7,5.8c6.7,0,13.4-1.7,19.6-5c12-6.5,27-16.3,36.2-34.8
		c7.4-14.8,10.7-33.8,10.7-61.5V462.4C113,453.5,103.4,448,95.7,452.4z"/>
	<path fill="#EDEBE8" d="M605.7,352.5c-2.7,1.5-4.4,4.3-4.5,7.4c-3,63.3-30.5,90.7-39.6,90.7c-0.3,0-0.9,0-2.1-1.9c-1.2-1.9-3.9-7.7-3.9-20.5v-75.4
		c0-16.4-6.5-29.6-17.8-36.1c-10.6-6.1-23.6-5.6-35.8,1.4c-1.4,0.8-2.7,1.6-4.1,2.5c-1.7,1.1-4-0.1-4-2.1V233c0-3.9-4.3-6.4-7.7-4.5
		L466.5,240c-2.8,1.6-4.5,4.6-4.5,7.8v83.1c0,48.4-13.2,83.3-29.4,110.3c-1,1.7-3.4,1.6-4.4,0c-5.8-9.8-13-19.9-21.4-30.4
		c-19.4-24-38.7-40.8-39.5-41.5l-1.1-0.9c-10-8.6-25.5-1.5-25.5,11.6v1.4c0,84.9-2.8,133.9-9.4,163.8c-6.4,28.8-15.7,39.1-29.8,47.3
		l-4.1,2.4c-2.5,1.5-4.7,0.6-5.8,0c-1.1-0.6-2.9-2.1-2.9-5V420c0-3.9-4.3-6.4-7.7-4.5l-19.2,11c-3.2,1.8-5.2,5.2-5.2,8.9v166.3
		c0,10.3-5.5,19.8-14.4,25l-0.6,0.4c-4.3,2.5-8.2,0.8-9.6,0c-1.4-0.8-4.8-3.3-4.8-8.3V451.7c0-13.2-15.4-20.3-25.4-11.7l-1.1,0.9
		c-18.5,15.9-37.3,26.8-55.7,32.4l-4.1,1.2c-4.3,1.3-7.3,5.3-7.3,9.8v228.1c0,3.9,4.3,6.4,7.7,4.5l19.9-11.4
		c2.8-1.6,4.5-4.6,4.5-7.8V503.5c0-2.1,1.2-3.9,3.1-4.7c7.5-3.1,15-6.9,22.5-11.4c1.7-1,3.9,0.2,3.9,2.2v128.7
		c0,15,7.8,29.1,20.7,36.6c13.1,7.6,28.7,7.6,41.8,0.1l0.6-0.4c10-5.8,18-14.2,23.2-24c1.3-2.4,4-3.7,6.8-3.2
		c8.5,1.5,17.3-0.1,25.2-4.6l4.1-2.4c24.5-14.1,37.6-33.9,45.1-68.1c5.9-26.7,8.9-64.5,9.9-125.4c0-2.4,3-3.4,4.5-1.6
		c11.5,13.5,23,29.4,30.4,45.3c1,2.2,0.7,4.8-0.9,6.7c-2.3,2.9-4.6,5.6-6.9,8.3c-15.9,19.1-29.7,35.6-29.7,54.9
		c0,26.1,11.8,35.9,16.9,38.9c4.8,2.8,14.8,6.5,27.7-0.7c12.7-7.1,21.5-17.3,26.8-31.2c4.4-11.5,6.4-25.8,6.4-45.1
		c0-6.4-0.8-13-2.3-19.8c-0.3-1.4,0-2.9,0.9-4.1c3.6-5,7.3-10.3,10.8-15.9c1.4-2.2,4.7-1.2,4.7,1.4v60.6c0,3.9,4.3,6.4,7.7,4.5
		l19.9-11.4c2.8-1.6,4.5-4.6,4.5-7.8V407.7c0-29.6,4-50.2,24.1-61.8c0,0,0,0,0.1,0c2-1.2,4.6,0.1,5,2.3c0.2,1.2,0.4,2.7,0.4,4.6
		v75.4c0,15.5,3,28.1,8.8,37.5c6.7,10.8,17.4,17,29.3,17c34.6,0,72-51.3,72-134.1v-3.2c0-3.9-4.3-6.4-7.7-4.5L605.7,352.5z
		 M414.8,521.6c-1.5,12-4.7,19-9.1,23.7c-1.1,1.2-3.2,0.5-3.3-1.1c-0.1-1.2-0.2-2.5-0.2-3.9c0-4.8,4.3-11.7,10.3-19.6
		C413.3,519.6,415,520.3,414.8,521.6z"/>
	<path fill="#EDEBE8" d="M972.3,457.5c-2.7,1.5-4.4,4.3-4.5,7.4c-1.3,26.7-13.1,61.5-43.1,78.7c-5.3,3-11.3,6-17.4,8.2c-2.1,0.8-4.1-1.4-3.2-3.5
		c14.4-32.8,21.5-66.9,21.5-103.8c0-34.7-19.4-50.2-38.6-50.2c-15.8,0-31.4,9.9-42.7,27.1c-8,12.1-17.4,33.5-17.4,66.8
		c0,21.4,2.6,39.8,7.6,54.6c4.1,11.9,9.8,21.6,17.1,28.9c1.3,1.3,1.5,3.3,0.5,4.8c-12.1,18.3-25.8,35.4-39.3,52v-42.4V456.3
		c0-4-4.3-6.4-7.7-4.4l-19.2,11.1c-3.2,1.8-5.1,5.2-5.1,8.9v114.3c0,12.6-6.8,24.3-17.6,30.6c-3.1,1.8-5.8,0.8-7.1,0
		c-1.3-0.8-3.6-2.6-3.6-6.2V491.2c0-4-4.3-6.4-7.7-4.4l-19.2,11.1c-3.2,1.8-5.1,5.2-5.1,8.9v3.7c-0.9,66.5-4.2,105.7-11,130.8l0,0.1
		c-0.5,1.7-3,1.4-3-0.4v-61.9c0-14.4-7.4-27.8-19.8-35c-12.5-7.3-27.5-7.3-40-0.1l-10.2,5.9l0,0c-1.1,0.6-2.4-0.2-2.4-1.4v-79.7
		c0-4-4.3-6.4-7.7-4.4l-19.2,11.1c-3.2,1.8-5.1,5.2-5.1,8.9v125.4v85.4c0,5.7-3.9,12.5-10.2,17.6c-0.1,0-0.1,0.1-0.2,0.1
		c-1.7,1.3-4.2,0.1-4.2-2v-64V495.7c0-4-4.3-6.4-7.7-4.4l-19.2,11.1c-3.2,1.8-5.1,5.2-5.1,8.9v93.4c0,1.5-1.4,2.7-2.9,2.5
		c-8.5-1.1-17.2,0.6-24.9,5.1l-10.2,5.9c-21.3,12.3-34.6,35.2-34.6,59.8c0,5.7-3.9,12.5-10.2,17.6c-1.7,1.4-3.3,2.4-4.7,3.2
		c-1.3,0.7-2.9,0.2-3.6-1.2c-3.5-7.2-9.1-13.2-16.4-17.3c-12.4-7-27.7-6.6-40,0.5l-9.7,5.6c-21.3,12.3-34.6,35.2-34.6,59.8
		c0,5.7-3.9,12.5-10.2,17.6c-1.7,1.4-3.3,2.4-4.7,3.2c-1.3,0.7-2.9,0.2-3.6-1.2c-3.5-7.2-9.1-13.2-16.4-17.3
		c-12.4-7-27.7-6.6-40,0.5l-9.7,5.6c-21.4,12.3-34.6,35.2-34.6,59.8v84.9c0,14.2,7.3,27.6,19.5,34.9c6.4,3.8,13.4,5.7,20.4,5.7
		c6.9,0,13.7-1.8,20-5.4l10.2-5.9c21.3-12.3,34.6-35.2,34.6-59.8v-64.9c0-1.7,1.2-3.3,2.8-3.7c2.7-0.7,5.3-1.7,8-2.9
		c1.7-0.8,3.6,0.5,3.6,2.3v31.5c0,14.2,7.3,27.6,19.5,34.8c6.4,3.8,13.4,5.7,20.4,5.7c6.9,0,13.7-1.8,20-5.4l10.2-5.9
		c21.3-12.3,34.6-35.2,34.6-59.8v-64.9c0-1.7,1.2-3.3,2.8-3.7c2.7-0.7,5.3-1.7,8-2.9c1.7-0.8,3.6,0.5,3.6,2.3v31.5
		c0,14.2,7.3,27.6,19.5,34.9c6.4,3.8,13.4,5.7,20.4,5.7c6.9,0,13.7-1.8,20-5.4l10.2-5.9c14.9-8.6,25.9-22.5,31.1-38.4
		c0.7-2.2,2.5-3.7,4.7-4.2c4.5-1,9.2-2.8,13.8-5.4c14.5-8,31.5-25.7,31.5-48.9v-85.4c0-13.2,7.1-25.4,18.5-32.1l10.2-5.9
		c3.5-2,6.7-0.7,7.8,0c1.2,0.7,3.9,2.7,3.9,6.8V664c0,13.2-7.1,25.5-18.5,32.1l16,27.8l25.6-14.8c21.6-12.4,35-29.3,43.3-60.7
		c0.4-1.5,2.1-2.3,3.5-1.7c11.3,4.9,24.1,4.2,35-2.1l0,0c0.7-0.4,1.6,0.1,1.6,0.9v23.1c0,0.8-0.3,1.6-0.7,2.2
		c-25.7,35.9-46.1,75.8-46.1,128.1c0,22.4,7.1,39.4,20,47.7c5.2,3.4,11,5,16.9,5c4.5,0,9-1,13.3-2.9c17.7-8,28.8-30.4,28.8-58.4
		V682.8c0-1.7,0.5-3.3,1.6-4.7c7-9.2,14.5-18.4,22.1-27.8c15.3-18.9,31-38.3,44.9-59.9c1.3-2,3.5-3.1,5.8-3
		c15.7,0.8,33.6-4.6,53.5-15.9c19.4-11.1,35.2-28.5,45.7-50.5c8.9-18.6,13.8-40.2,13.8-61v-9.5c0-3.9-4.3-6.4-7.7-4.5L972.3,457.5z
		 M316.7,868.8c0,13.2-7.1,25.5-18.5,32.1l-10.2,5.9c-3.5,2-6.7,0.7-7.8,0s-3.9-2.7-3.9-6.8v-85.4c0-13.2,7.1-25.5,18.5-32.1
		l10.2-5.9c1.4-0.8,2.7-1.1,3.9-1.1c1.8,0,3.2,0.7,4,1.1c1.2,0.7,3.9,2.7,3.9,6.8V868.8z M435.8,800.5c0,13.2-7.1,25.5-18.5,32.1
		l-10.2,5.9c-3.5,2-6.7,0.7-7.8,0c-1.2-0.7-3.9-2.7-3.9-6.8v-85.4c0-13.2,7.1-25.5,18.5-32.1l10.2-5.9c1.4-0.8,2.7-1.1,3.9-1.1
		c1.8,0,3.2,0.7,4,1.1c1.2,0.7,3.9,2.7,3.9,6.8V800.5z M554.9,732.2c0,13.2-7.1,25.5-18.5,32.1l-10.2,5.9c-3.5,2-6.7,0.7-7.8,0
		c-1.2-0.7-3.9-2.7-3.9-6.8V678c0-13.2,7.1-25.5,18.5-32.1l10.2-5.9c1.4-0.8,2.7-1.1,3.9-1.1c1.8,0,3.2,0.7,4,1.1
		c1.2,0.7,3.9,2.7,3.9,6.8V732.2z M780.6,790.2c0,16.5-4.9,24.7-8.1,27.8c-0.9,0.9-2.4,0.7-3-0.4c-1.6-2.7-3.7-8.5-3.7-18.8
		c0-20.3,3.6-39.3,11.1-58.3c0.8-2,3.7-1.4,3.7,0.7V790.2z M872.6,540.1c-0.9,1.9-3.7,2-4.6,0.1c-5.9-11.6-9.1-29.5-9.1-52
		c0-19.8,4.3-37.2,12.2-49.1c6.5-10,13.1-12.6,15.9-12.6c3.7,0,6.6,7.8,6.6,18.1C893.5,478.6,886.7,510,872.6,540.1z"/>
	<path fill="#EDEBE8" d="M234.9,821.5c0-4-4.3-6.4-7.7-4.4l-5.4,3.1l-27.6,15.8l-26.9,15.4c-3.2,1.8-5.2,5.2-5.2,8.9v22.2c0,3.9,4.3,6.4,7.7,4.5
		l16.3-9.4v33.9c0,21.8-11.6,41.9-30.5,52.8l-14.8,8.5c-8.4,4.8-15.8,1.6-18.6,0c-2.8-1.6-9.3-6.4-9.3-16.1V832.7
		c0-21.8,11.6-41.9,30.5-52.8l14.8-8.5c8.4-4.8,15.8-1.6,18.6,0c2.8,1.6,9.3,6.4,9.3,16.1v8.9c0,3.9,4.3,6.4,7.7,4.5l19.5-11.1
		c3.2-1.8,4.9-5.4,4.4-9c-2-15.5-11-29.1-24.9-37.1c-15.9-9.2-34.8-9.2-50.7,0l-14.8,8.5c-28.7,16.6-46.5,47.4-46.5,80.6v123.2
		c0,18.5,9.7,35.8,25.8,44.9c7.8,4.4,16.3,6.6,24.9,6.6c8.7,0,17.4-2.3,25.3-6.9l14.8-8.5c28.7-16.6,46.5-47.4,46.5-80.6v-52.3
		l11.5-6.6c3.2-1.8,5.2-5.2,5.2-8.9V821.5z"/>
	<path fill="#EDEBE8" d="M671.5,723.8l-3.6,2.1c-10.7,6.2-24.1-1.5-24.1-13.9v0c0-5.7,3.1-11,8-13.9l3.6-2.1L671.5,723.8z"/>
</g>
</svg>
