<?xml version="1.0" encoding="utf-8"?>
<!-- Generator: Adobe Illustrator 16.2.1, SVG Export Plug-In . SVG Version: 6.00 Build 0)  -->
<!DOCTYPE svg PUBLIC "-//W3C//DTD SVG 1.1//EN" "http://www.w3.org/Graphics/SVG/1.1/DTD/svg11.dtd">
<svg version="1.1" id="Layer_1" xmlns="http://www.w3.org/2000/svg" xmlns:xlink="http://www.w3.org/1999/xlink" x="0px" y="0px"
	 width="250px" height="175px" viewBox="475 444.598 250 175" enable-background="new 475 444.598 250 175" xml:space="preserve">
<g>
	<g>
		<polygon fill="#EDEBE8" points="505.546,492.731 511.709,489.787 511.709,505.338 515.116,503.71 515.116,488.159 
			521.279,485.214 521.279,481.464 505.546,488.981 		"/>
		<polygon fill="#EDEBE8" points="560.036,466.696 560.036,462.947 544.303,470.464 544.303,474.214 544.303,478.17 
			538.315,481.028 538.315,473.172 534.908,474.8 534.908,482.655 528.093,485.909 528.093,478.056 524.687,479.684 
			524.687,499.138 528.093,497.51 528.093,489.659 534.908,486.405 534.908,494.254 538.315,492.626 538.315,484.778 
			544.303,481.92 544.303,485.909 544.303,489.658 544.303,489.918 544.971,489.339 560.036,482.142 560.036,478.391 547.71,484.28 
			547.71,480.294 557.031,475.843 557.031,472.093 547.71,476.543 547.71,472.587 		"/>
	</g>
	<g>
		<path fill="#EDEBE8" d="M529.957,530.434c-4.45-2.427-12.905,0.036-12.905,5.991v-9.521c0,0-5.34,2.848-5.34,7.39v24.922
			c1.772,0.691,3.558,1.472,5.34,2.356v-13.234c0-6.654,2.67-13.271,6.675-15.478s4.895,3.75,2.67,5.515s-2.893,10.588,1.78,8.382
			S534.406,532.859,529.957,530.434z"/>
		<path fill="#EDEBE8" d="M543.083,510.306c0,2.984-1.893,5.873-4.228,6.451c-2.335,0.579-4.227-1.371-4.227-4.355
			s1.893-5.874,4.228-6.452C541.191,505.37,543.083,507.32,543.083,510.306z"/>
		<path fill="#EDEBE8" d="M503.701,562.087c-0.018-5.887-0.491-23.049-0.74-34.041c6.503-3.068,18.535-8.863,28.33-13.595v-4.227
			c-9.395,4.501-20.995,10.047-28.42,13.558c-0.037-1.924-0.059-3.441-0.059-4.377c0-5.957-5.117-8.162-9.122-7.279
			c-4.005,0.882-8.232,4.19-8.232,8.161v5.624c0,5.709,5.47,6.789,11.57,4.734c0,7.958,0,17.216,0,22.729
			c0,2.446,0.062,4.817,0.077,7.084c-0.404-0.085-0.801-0.168-1.189-0.246C483.9,557.786,475,565.285,475,572.564
			s2.893,14.999,13.127,11.028c9.459-3.669,14.734-12.236,15.479-19.435c4.211,0.935,8.725,2.654,13.223,5.318
			c17.132,10.147,19.802,31.323,18.022,37.94s-9.345,0.221-9.345,7.72c0,12.14,23.139-1.984,12.682-24.484
			C529.77,572.538,515.294,565.434,503.701,562.087z M495.692,527.124c-4.178,1.793-5.117-3.088-5.117-7.94
			c0-4.191,6.452-6.386,6.452-3.089c0,1.23,0,5.287,0,10.428C496.42,526.802,495.964,527.008,495.692,527.124z M492.132,578.078
			c-6.007,5.294-9.79,1.986-9.79-6.617c0-5.121,6.153-8.445,14.748-8.153C496.968,569.407,496.116,574.568,492.132,578.078z"/>
		<path fill="#EDEBE8" d="M541.455,553.846c0.137-2.106,0.071-4.01,0.071-5.325c0-4.191,0-29.889,0-29.889s-5.34,2.848-5.34,7.39
			v26.828c-1.203,0.106-2.456,0.468-3.782,1.186c-9.79,5.294-4.895,16.323,2.447,12.573c4.011-2.048,5.629-6.005,6.274-9.857
			c1.918,0.363,3.956,1.007,5.963,1.917c7.788,3.529,12.015-0.662,12.015-0.662C551.801,561.047,546.799,556.104,541.455,553.846z
			 M531.069,561.094c0-2.759,2.061-4.248,5.095-4.605C535.818,564.339,531.069,566.407,531.069,561.094z"/>
		<path fill="#EDEBE8" d="M548.869,516.315c0-14.324,19.802-23.822,19.802-9.264c0,7.279-7.787,16.103-7.787,9.264
			c0-6.838,4.005-1.543,4.005-6.176c0-4.632-2.447-7.941-6.007-6.176c-3.56,1.764-4.005,5.734-4.005,11.689
			c0,10.81,14.685,2.647,14.685,17.428c0,17.866-20.915,23.381-20.915,7.94s8.677-9.706,8.677-4.853
			c0,4.853-5.562-1.104-5.562,2.646c0,3.749,10.457,11.028,10.457-3.971C562.218,523.595,548.869,531.536,548.869,516.315z"/>
		<path fill="#EDEBE8" d="M618.955,522.493c-4.673-0.883-9.123,5.072-4.896,6.837s7.343-3.309,7.343-3.309s3.56,1.323,0.223,8.603
			c-3.252,7.092-17.901,15.434-27.501,15.657c5.401-10.972,4.807-28.444,4.807-38.377c0-12.132-3.783-17.646-9.568-14.337
			c-4.595,2.627-6.521,7.202-7.12,11.185c0-13.226,0-19.01,0-31.038c0-2.551-0.121-4.896-0.351-7.027
			c5.708-5.2,10.141-13.961,10.141-19.883c0-7.5-8.455-8.162-8.455-2.206s5.785,4.632,4.672,8.382
			c-0.888,2.995-2.489,7.537-6.724,11.042c-1.534-9.097-5.463-13.179-11.076-10.38c-7.328,3.653-6.675,8.603-6.675,12.794
			c0,5.551,4.82,6.954,11.792,4.196c0,6.965,0,14.111,0,14.111c0,10.146,0,31.984,0,43.234c0,16.322-13.35,24.484-13.35,24.484
			s20.024-8.603,20.024-33.309c0-2.77,0-5.291,0-7.609c0-10.809,11.347-15.771,11.347-8.492c0,7.72,0,12.573,0,32.205
			c0,4.493-0.876,8.118-2.225,11.001c-9.05-0.043-18.69,1.146-18.69,7.307c0,6.617,6.675,7.94,16.91-1.103
			c1.211-1.07,2.265-2.344,3.184-3.772c1.542-0.266,3.215-0.549,5.048-0.859c16.909-2.868,26.255-13.677,28.034-19.411
			C627.632,526.684,623.627,523.374,618.955,522.493z M568.226,467.567c0-6.396,7.342-10.256,7.342-3.639c0,1.826,0,4.535,0,7.498
			C570.157,473.541,568.226,471.737,568.226,467.567z M576.903,558.668c0-2.691,2.65-3.632,12.736-5.432
			C584.704,560.199,576.903,560.931,576.903,558.668z"/>
	</g>
	<g>
		<path fill="#EDEBE8" d="M545.308,583.373c0,10.146,0,20.955,0,27.572c0,6.618,6.022,11.266,15.797,6.839
			c8.835-4.003,11.57-10.146,11.57-18.75c0-13.014,6.452-10.809,6.452-18.088c0-5.734-7.12-4.191-7.12-0.661
			c0,3.528,2.225,3.529,4.672,2.426c0,0-1.78,4.412-7.342,7.721s-5.117,5.956-5.117,8.823c0,2.868,2.447,1.545,2.447-1.323
			c0-2.867,2.447-3.31,2.447-3.31s0,1.545,0,7.501c0,5.955-4.672,9.043-7.565,10.367c-5.421,2.48-7.12-2.427-7.12-14.117
			c0-9.706,0-11.691,0-16.544c0-4.854,0.445-10.588,4.895-13.014c4.45-2.428,6.23,2.866,3.338,5.073
			c-2.893,2.205,0.89,7.278,3.782,5.734c2.892-1.544,3.115-3.97,3.115-8.823c0-4.853-6.344-8.468-12.459-5.515
			C549.992,568.719,545.308,575.433,545.308,583.373z"/>
		<path fill="#EDEBE8" d="M588.695,572.564c-4.45,1.985-7.12,7.279-7.12,12.573c0,7.059,0,11.471,0,14.558
			c0,3.089,3.345,6.762,8.9,4.191s6.452-5.955,6.452-11.911s0-7.94,0-13.014S593.145,570.579,588.695,572.564z M592.7,591.755
			c0,4.854-0.667,7.94-2.447,8.604c-1.78,0.662-3.337-1.324-3.337-5.073c0-3.751,0-7.722,0-12.574c0-3.528,0.445-5.956,2.67-7.279
			s3.115,0.662,3.115,4.191S592.7,586.902,592.7,591.755z"/>
		<path fill="#EDEBE8" d="M607.829,563.08c-4.449,1.985-7.119,7.279-7.119,12.573c0,7.058,0,11.47,0,14.559
			c0,3.087,3.344,6.762,8.899,4.189c5.556-2.57,6.452-5.955,6.452-11.911c0-5.955,0-7.94,0-13.014S612.279,561.095,607.829,563.08z
			 M611.834,582.271c0,4.853-0.667,7.941-2.447,8.603c-1.779,0.662-3.337-1.323-3.337-5.073s0-7.721,0-12.573
			c0-3.529,0.444-5.956,2.67-7.279c2.225-1.323,3.114,0.661,3.114,4.191C611.834,573.668,611.834,577.417,611.834,582.271z"/>
		<path fill="#EDEBE8" d="M648.993,543.055c-3.004,1.323-5.34,5.789-5.34,8.602c0,0,0-5.955,0-10.091c0-2.646,0-5.294,0-7.775
			c0-2.482-2.398-7.065-5.841-5.459c-3.441,1.605-5.34,4.797-5.34,9.926c0,7.279,0,18.859,0,18.859s-1.422-7.723-6.174-5.955
			c-5.34,1.984-6.675,7.94-6.675,13.896c0,5.46,0,8.769,0,12.905c0,4.136,3.17,8.933,7.843,6.947
			c4.672-1.985,5.006-6.947,5.006-6.947v10.422c0,0,4.005-4.302,4.005-18.528c0-14.229,0-28.125,0-34.081
			c0-5.955,3.004-5.789,3.004-1.819s0,30.606,0,36.893s0.167,12.407-3.171,16.708c0,0,7.009-5.955,7.009-14.393
			c0,0,11.181,4.467,11.181-7.444c0-6.287,0-8.438,0-14.393C654.5,545.37,651.997,541.73,648.993,543.055z M630.581,570.447
			c0,4.033-0.667,6.6-2.447,7.149c-1.78,0.551-3.337-1.1-3.337-4.217c0-3.116,0-6.416,0-10.449c0-2.933,0.444-4.949,2.67-6.049
			c2.225-1.1,3.114,0.55,3.114,3.482C630.581,563.298,630.581,566.414,630.581,570.447z M650.939,562.507
			c0,4.033-0.668,6.599-2.447,7.148c-1.78,0.55-3.338-1.1-3.338-4.216c0-3.117,0-6.416,0-10.449c0-2.934,0.445-4.949,2.67-6.05
			c2.226-1.1,3.115,0.55,3.115,3.482C650.939,555.356,650.939,558.474,650.939,562.507z"/>
		<path fill="#EDEBE8" d="M664.235,544.946c0,4.563-0.767,21.146,7.673,16.886c0,0,0-0.152,0,21.602s-18.26,28.295-18.26,15.061
			s12.429-19.625,34.985-29.36C711.19,559.397,725,538.253,725,516.955s-36.827-27.382-36.827-10.801
			c0,6.693,10.281,3.499,10.281-1.217s23.938-6.542,23.938,15.821c0,15.82-13.222,36.816-39.896,47.615
			c-18.414,7.453-35.753,17.189-35.753,32.554c0,15.366,29.154,14.757,29.154-13.387s0-43.354,0-50.049
			c0-6.693,2.302-10.952,2.302-10.952s-6.291,3.521-6.291,14.778c0,8.191,0,16.103,0,16.103s-4.144,1.825-4.144-14.301
			c0-16.125-10.895-7.453-10.895-1.064c0,6.39,4.143,3.194,4.143,0S664.235,537.796,664.235,544.946z"/>
		<path fill="#EDEBE8" d="M711.65,516.499c0,0,3.682,1.064,3.682,6.846s-2.454,17.646-12.735,22.666
			c-10.281,5.021-15.498,1.674-15.498-5.628c0,0,9.82-5.325,14.271-8.063s5.456-21.047-7.979-15.668
			c-7.979,3.194-11.354,8.366-11.354,14.756c0,2.129,0,6.236,0,11.561s7.279,13.248,18.566,8.063
			C717.98,543.051,721.01,516.499,711.65,516.499z M693.697,521.367c5.831-2.435,5.678,1.521,5.678,4.259
			c0,0.536-0.728,4.023-3.99,5.934c-8.286,4.853-8.286,4.853-8.286,4.853C687.099,531.088,687.865,523.801,693.697,521.367z"/>
	</g>
</g>
</svg>
